<?xml version="1.0" standalone="yes"?>

<svg version="1.1" viewBox="0.0 0.0 960.0 720.0" fill="none" stroke="none" stroke-linecap="square" stroke-miterlimit="10" xmlns="http://www.w3.org/2000/svg" xmlns:xlink="http://www.w3.org/1999/xlink"><clipPath id="p.0"><path d="m0 0l960.0 0l0 720.0l-960.0 0l0 -720.0z" clip-rule="nonzero"></path></clipPath><g clip-path="url(#p.0)"><path fill="#ff9900" d="m80.46719 149.36693l0 0c0 -10.496017 8.5086975 -19.00473 19.004715 -19.00473l216.13231 0c5.040344 0 9.874268 2.0022888 13.4383545 5.5663605c3.564087 3.5640717 5.566345 8.397995 5.566345 13.43837l0 229.26616c0 10.496002 -8.5086975 19.0047 -19.0047 19.0047l-216.13231 0c-10.496017 0 -19.004715 -8.5086975 -19.004715 -19.0047z" fill-rule="nonzero"></path><path fill="#000000" d="m139.0622 217.42969q-0.40625 -1.078125 -0.765625 -2.125q-0.359375 -1.046875 -0.75 -2.125l-7.53125 0l-1.515625 4.25l-2.421875 0q0.96875 -2.640625 1.796875 -4.875q0.84375 -2.25 1.640625 -4.265625q0.8125 -2.015625 1.609375 -3.84375q0.796875 -1.84375 1.65625 -3.640625l2.140625 0q0.859375 1.796875 1.640625 3.640625q0.796875 1.828125 1.59375 3.84375q0.8125 2.015625 1.65625 4.265625q0.84375 2.234375 1.796875 4.875l-2.546875 0zm-2.1875 -6.171875q-0.765625 -2.078125 -1.515625 -4.03125q-0.75 -1.96875 -1.578125 -3.765625q-0.828125 1.796875 -1.59375 3.765625q-0.75 1.953125 -1.5 4.03125l6.1875 0zm16.786957 5.8125q-0.765625 0.1875 -2.03125 0.40625q-1.265625 0.21875 -2.921875 0.21875q-1.4375 0 -2.421875 -0.421875q-0.984375 -0.421875 -1.59375 -1.1875q-0.59375 -0.765625 -0.859375 -1.8125q-0.25 -1.046875 -0.25 -2.3125l0 -7.015625l2.234375 0l0 6.53125q0 2.28125 0.71875 3.265625q0.71875 0.984375 2.421875 0.984375q0.359375 0 0.734375 -0.015625q0.390625 -0.03125 0.71875 -0.0625q0.34375 -0.046875 0.609375 -0.078125q0.28125 -0.03125 0.40625 -0.078125l0 -10.546875l2.234375 0l0 12.125zm5.932205 -12.125l4.71875 0l0 1.875l-4.71875 0l0 5.765625q0 0.9375 0.140625 1.546875q0.140625 0.609375 0.421875 0.96875q0.296875 0.34375 0.71875 0.484375q0.4375 0.140625 1.015625 0.140625q1.0 0 1.609375 -0.21875q0.625 -0.234375 0.859375 -0.328125l0.4375 1.84375q-0.34375 0.171875 -1.1875 0.421875q-0.828125 0.25 -1.90625 0.25q-1.28125 0 -2.109375 -0.328125q-0.828125 -0.328125 -1.328125 -0.96875q-0.5 -0.65625 -0.703125 -1.59375q-0.203125 -0.953125 -0.203125 -2.203125l0 -11.125l2.234375 -0.390625l0 3.859375zm7.5542145 12.484375l0 -18.234375l2.234375 -0.390625l0 6.390625q0.625 -0.25 1.328125 -0.375q0.703125 -0.140625 1.40625 -0.140625q1.484375 0 2.46875 0.421875q0.984375 0.421875 1.5625 1.1875q0.59375 0.75 0.828125 1.8125q0.25 1.046875 0.25 2.3125l0 7.015625l-2.234375 0l0 -6.53125q0 -1.15625 -0.15625 -1.96875q-0.15625 -0.8125 -0.515625 -1.3125q-0.359375 -0.5 -0.96875 -0.734375q-0.59375 -0.234375 -1.484375 -0.234375q-0.359375 0 -0.75 0.046875q-0.375 0.046875 -0.71875 0.109375q-0.34375 0.0625 -0.625 0.140625q-0.28125 0.0625 -0.390625 0.109375l0 10.375l-2.234375 0zm13.000839 -6.21875q0 -1.65625 0.484375 -2.890625q0.484375 -1.234375 1.265625 -2.046875q0.796875 -0.8125 1.828125 -1.21875q1.03125 -0.421875 2.109375 -0.421875q2.53125 0 3.875 1.578125q1.34375 1.578125 1.34375 4.78125q0 0.15625 0 0.390625q0 0.21875 -0.03125 0.40625l-8.546875 0q0.15625 1.9375 1.125 2.953125q0.984375 1.0 3.078125 1.0q1.171875 0 1.96875 -0.203125q0.8125 -0.203125 1.21875 -0.390625l0.3125 1.875q-0.40625 0.21875 -1.421875 0.453125q-1.015625 0.234375 -2.3125 0.234375q-1.640625 0 -2.828125 -0.484375q-1.1875 -0.5 -1.953125 -1.359375q-0.765625 -0.859375 -1.140625 -2.046875q-0.375 -1.1875 -0.375 -2.609375zm8.578125 -1.21875q0.015625 -1.515625 -0.765625 -2.484375q-0.78125 -0.96875 -2.140625 -0.96875q-0.765625 0 -1.359375 0.296875q-0.59375 0.296875 -1.0 0.78125q-0.40625 0.46875 -0.640625 1.09375q-0.21875 0.625 -0.296875 1.28125l6.203125 0zm5.5409546 -4.6875q0.765625 -0.1875 2.03125 -0.40625q1.28125 -0.21875 2.9375 -0.21875q1.484375 0 2.46875 0.421875q0.984375 0.421875 1.5625 1.1875q0.59375 0.75 0.828125 1.8125q0.25 1.046875 0.25 2.3125l0 7.015625l-2.234375 0l0 -6.53125q0 -1.15625 -0.15625 -1.96875q-0.15625 -0.8125 -0.515625 -1.3125q-0.359375 -0.5 -0.96875 -0.734375q-0.59375 -0.234375 -1.484375 -0.234375q-0.359375 0 -0.75 0.03125q-0.375 0.015625 -0.71875 0.0625q-0.34375 0.03125 -0.625 0.078125q-0.28125 0.046875 -0.390625 0.078125l0 10.53125l-2.234375 0l0 -12.125zm15.869705 -0.359375l4.71875 0l0 1.875l-4.71875 0l0 5.765625q0 0.9375 0.140625 1.546875q0.140625 0.609375 0.421875 0.96875q0.296875 0.34375 0.71875 0.484375q0.4375 0.140625 1.015625 0.140625q1.0 0 1.609375 -0.21875q0.625 -0.234375 0.859375 -0.328125l0.4375 1.84375q-0.34375 0.171875 -1.1875 0.421875q-0.828125 0.25 -1.90625 0.25q-1.28125 0 -2.109375 -0.328125q-0.828125 -0.328125 -1.328125 -0.96875q-0.5 -0.65625 -0.703125 -1.59375q-0.203125 -0.953125 -0.203125 -2.203125l0 -11.125l2.234375 -0.390625l0 3.859375zm9.788574 12.484375l-2.234375 0l0 -12.484375l2.234375 0l0 12.484375zm-1.125 -14.734375q-0.609375 0 -1.03125 -0.390625q-0.421875 -0.40625 -0.421875 -1.078125q0 -0.671875 0.421875 -1.0625q0.421875 -0.390625 1.03125 -0.390625q0.59375 0 1.015625 0.390625q0.421875 0.390625 0.421875 1.0625q0 0.671875 -0.421875 1.078125q-0.421875 0.390625 -1.015625 0.390625zm10.384491 15.015625q-1.515625 0 -2.65625 -0.46875q-1.140625 -0.484375 -1.921875 -1.34375q-0.78125 -0.875 -1.171875 -2.0625q-0.375 -1.1875 -0.375 -2.625q0 -1.4375 0.421875 -2.640625q0.421875 -1.203125 1.1875 -2.078125q0.765625 -0.875 1.875 -1.359375q1.125 -0.5 2.5 -0.5q0.84375 0 1.671875 0.15625q0.84375 0.140625 1.609375 0.453125l-0.5 1.890625q-0.5 -0.234375 -1.171875 -0.375q-0.65625 -0.15625 -1.390625 -0.15625q-1.875 0 -2.875 1.1875q-1.0 1.171875 -1.0 3.421875q0 1.015625 0.234375 1.859375q0.234375 0.828125 0.71875 1.4375q0.484375 0.59375 1.25 0.921875q0.78125 0.3125 1.875 0.3125q0.890625 0 1.609375 -0.15625q0.71875 -0.171875 1.140625 -0.359375l0.3125 1.859375q-0.203125 0.125 -0.5625 0.234375q-0.359375 0.109375 -0.8125 0.1875q-0.453125 0.09375 -0.96875 0.140625q-0.515625 0.0625 -1.0 0.0625zm9.956848 -1.890625q0.796875 0 1.40625 -0.03125q0.609375 -0.046875 1.015625 -0.140625l0 -3.71875q-0.234375 -0.109375 -0.78125 -0.1875q-0.53125 -0.09375 -1.296875 -0.09375q-0.515625 0 -1.078125 0.078125q-0.5625 0.0625 -1.03125 0.296875q-0.46875 0.21875 -0.78125 0.625q-0.3125 0.390625 -0.3125 1.03125q0 1.203125 0.765625 1.671875q0.78125 0.46875 2.09375 0.46875zm-0.1875 -11.1875q1.34375 0 2.265625 0.359375q0.921875 0.34375 1.484375 0.984375q0.5625 0.625 0.796875 1.5q0.25 0.875 0.25 1.9375l0 7.796875q-0.28125 0.046875 -0.796875 0.140625q-0.515625 0.078125 -1.171875 0.140625q-0.640625 0.078125 -1.40625 0.140625q-0.75 0.0625 -1.5 0.0625q-1.046875 0 -1.9375 -0.21875q-0.890625 -0.21875 -1.546875 -0.6875q-0.640625 -0.46875 -1.0 -1.234375q-0.359375 -0.765625 -0.359375 -1.84375q0 -1.03125 0.421875 -1.765625q0.421875 -0.75 1.140625 -1.203125q0.71875 -0.46875 1.671875 -0.671875q0.96875 -0.21875 2.015625 -0.21875q0.34375 0 0.703125 0.03125q0.359375 0.03125 0.671875 0.09375q0.328125 0.0625 0.5625 0.109375q0.25 0.046875 0.34375 0.078125l0 -0.625q0 -0.5625 -0.125 -1.09375q-0.109375 -0.546875 -0.421875 -0.96875q-0.3125 -0.421875 -0.859375 -0.671875q-0.53125 -0.25 -1.390625 -0.25q-1.109375 0 -1.9375 0.15625q-0.828125 0.15625 -1.234375 0.328125l-0.265625 -1.84375q0.4375 -0.203125 1.4375 -0.375q1.015625 -0.1875 2.1875 -0.1875zm10.590454 0.3125l4.71875 0l0 1.875l-4.71875 0l0 5.765625q0 0.9375 0.140625 1.546875q0.140625 0.609375 0.421875 0.96875q0.296875 0.34375 0.71875 0.484375q0.4375 0.140625 1.015625 0.140625q1.0 0 1.609375 -0.21875q0.625 -0.234375 0.859375 -0.328125l0.4375 1.84375q-0.34375 0.171875 -1.1875 0.421875q-0.828125 0.25 -1.90625 0.25q-1.28125 0 -2.109375 -0.328125q-0.828125 -0.328125 -1.328125 -0.96875q-0.5 -0.65625 -0.703125 -1.59375q-0.203125 -0.953125 -0.203125 -2.203125l0 -11.125l2.234375 -0.390625l0 3.859375zm9.788605 12.484375l-2.234375 0l0 -12.484375l2.234375 0l0 12.484375zm-1.125 -14.734375q-0.609375 0 -1.03125 -0.390625q-0.421875 -0.40625 -0.421875 -1.078125q0 -0.671875 0.421875 -1.0625q0.421875 -0.390625 1.03125 -0.390625q0.59375 0 1.015625 0.390625q0.421875 0.390625 0.421875 1.0625q0 0.671875 -0.421875 1.078125q-0.421875 0.390625 -1.015625 0.390625zm15.97821 8.5q0 1.484375 -0.4375 2.6875q-0.421875 1.1875 -1.203125 2.0625q-0.78125 0.859375 -1.859375 1.328125q-1.078125 0.46875 -2.359375 0.46875q-1.265625 0 -2.359375 -0.46875q-1.078125 -0.46875 -1.859375 -1.328125q-0.765625 -0.875 -1.203125 -2.0625q-0.4375 -1.203125 -0.4375 -2.6875q0 -1.46875 0.4375 -2.671875q0.4375 -1.21875 1.203125 -2.078125q0.78125 -0.875 1.859375 -1.34375q1.09375 -0.46875 2.359375 -0.46875q1.28125 0 2.359375 0.46875q1.078125 0.46875 1.859375 1.34375q0.78125 0.859375 1.203125 2.078125q0.4375 1.203125 0.4375 2.671875zm-2.328125 0q0 -2.125 -0.953125 -3.359375q-0.9375 -1.234375 -2.578125 -1.234375q-1.625 0 -2.578125 1.234375q-0.953125 1.234375 -0.953125 3.359375q0 2.109375 0.953125 3.34375q0.953125 1.234375 2.578125 1.234375q1.640625 0 2.578125 -1.234375q0.953125 -1.234375 0.953125 -3.34375zm5.472473 -5.890625q0.765625 -0.1875 2.03125 -0.40625q1.28125 -0.21875 2.9375 -0.21875q1.484375 0 2.46875 0.421875q0.984375 0.421875 1.5625 1.1875q0.59375 0.75 0.828125 1.8125q0.25 1.046875 0.25 2.3125l0 7.015625l-2.234375 0l0 -6.53125q0 -1.15625 -0.15625 -1.96875q-0.15625 -0.8125 -0.515625 -1.3125q-0.359375 -0.5 -0.96875 -0.734375q-0.59375 -0.234375 -1.484375 -0.234375q-0.359375 0 -0.75 0.03125q-0.375 0.015625 -0.71875 0.0625q-0.34375 0.03125 -0.625 0.078125q-0.28125 0.046875 -0.390625 0.078125l0 10.53125l-2.234375 0l0 -12.125z" fill-rule="nonzero"></path><path fill="#000000" d="m159.14548 242.71094q-0.25 -0.578125 -0.640625 -1.46875q-0.390625 -0.890625 -0.859375 -1.921875q-0.453125 -1.03125 -0.96875 -2.125q-0.515625 -1.09375 -0.96875 -2.0625q-0.453125 -0.96875 -0.859375 -1.734375q-0.390625 -0.78125 -0.625 -1.1875q-0.265625 2.84375 -0.4375 6.140625q-0.15625 3.296875 -0.28125 6.65625l-2.28125 0q0.09375 -2.15625 0.203125 -4.34375q0.125 -2.203125 0.28125 -4.328125q0.15625 -2.125 0.328125 -4.140625q0.1875 -2.015625 0.40625 -3.8125l2.046875 0q0.640625 1.046875 1.390625 2.484375q0.75 1.4375 1.484375 3.015625q0.75 1.578125 1.4375 3.15625q0.703125 1.5625 1.28125 2.859375q0.578125 -1.296875 1.265625 -2.859375q0.703125 -1.578125 1.4375 -3.15625q0.75 -1.578125 1.484375 -3.015625q0.75 -1.4375 1.40625 -2.484375l2.03125 0q0.8125 8.03125 1.21875 16.625l-2.265625 0q-0.125 -3.359375 -0.296875 -6.65625q-0.171875 -3.296875 -0.4375 -6.140625q-0.234375 0.40625 -0.640625 1.1875q-0.390625 0.765625 -0.84375 1.734375q-0.453125 0.96875 -0.96875 2.0625q-0.515625 1.09375 -0.96875 2.125q-0.453125 1.03125 -0.859375 1.921875q-0.390625 0.890625 -0.625 1.46875l-1.875 0zm12.591446 -3.921875q0 -1.65625 0.484375 -2.890625q0.484375 -1.234375 1.265625 -2.046875q0.796875 -0.8125 1.828125 -1.21875q1.03125 -0.421875 2.109375 -0.421875q2.53125 0 3.875 1.578125q1.34375 1.578125 1.34375 4.78125q0 0.15625 0 0.390625q0 0.21875 -0.03125 0.40625l-8.546875 0q0.15625 1.9375 1.125 2.953125q0.984375 1.0 3.078125 1.0q1.171875 0 1.96875 -0.203125q0.8125 -0.203125 1.21875 -0.390625l0.3125 1.875q-0.40625 0.21875 -1.421875 0.453125q-1.015625 0.234375 -2.3125 0.234375q-1.640625 0 -2.828125 -0.484375q-1.1875 -0.5 -1.953125 -1.359375q-0.765625 -0.859375 -1.140625 -2.046875q-0.375 -1.1875 -0.375 -2.609375zm8.578125 -1.21875q0.015625 -1.515625 -0.765625 -2.484375q-0.78125 -0.96875 -2.140625 -0.96875q-0.765625 0 -1.359375 0.296875q-0.59375 0.296875 -1.0 0.78125q-0.40625 0.46875 -0.640625 1.09375q-0.21875 0.625 -0.296875 1.28125l6.203125 0zm8.447205 5.828125q1.359375 0 2.015625 -0.359375q0.671875 -0.359375 0.671875 -1.15625q0 -0.8125 -0.65625 -1.28125q-0.640625 -0.484375 -2.125 -1.09375q-0.71875 -0.28125 -1.390625 -0.578125q-0.65625 -0.3125 -1.140625 -0.71875q-0.46875 -0.40625 -0.765625 -0.984375q-0.28125 -0.578125 -0.28125 -1.40625q0 -1.65625 1.21875 -2.625q1.21875 -0.984375 3.34375 -0.984375q0.515625 0 1.046875 0.0625q0.53125 0.0625 0.984375 0.15625q0.453125 0.078125 0.796875 0.171875q0.359375 0.09375 0.546875 0.171875l-0.40625 1.921875q-0.359375 -0.203125 -1.125 -0.40625q-0.765625 -0.203125 -1.84375 -0.203125q-0.9375 0 -1.640625 0.375q-0.6875 0.375 -0.6875 1.15625q0 0.421875 0.15625 0.734375q0.15625 0.296875 0.46875 0.5625q0.328125 0.25 0.796875 0.46875q0.484375 0.203125 1.15625 0.453125q0.890625 0.328125 1.578125 0.65625q0.703125 0.328125 1.1875 0.765625q0.5 0.421875 0.765625 1.03125q0.265625 0.609375 0.265625 1.5q0 1.734375 -1.28125 2.625q-1.28125 0.875 -3.65625 0.875q-1.65625 0 -2.59375 -0.28125q-0.9375 -0.265625 -1.28125 -0.40625l0.421875 -1.921875q0.375 0.140625 1.21875 0.4375q0.84375 0.28125 2.234375 0.28125zm10.703964 0q1.359375 0 2.015625 -0.359375q0.671875 -0.359375 0.671875 -1.15625q0 -0.8125 -0.65625 -1.28125q-0.640625 -0.484375 -2.125 -1.09375q-0.71875 -0.28125 -1.390625 -0.578125q-0.65625 -0.3125 -1.140625 -0.71875q-0.46875 -0.40625 -0.765625 -0.984375q-0.28125 -0.578125 -0.28125 -1.40625q0 -1.65625 1.21875 -2.625q1.21875 -0.984375 3.34375 -0.984375q0.515625 0 1.046875 0.0625q0.53125 0.0625 0.984375 0.15625q0.453125 0.078125 0.796875 0.171875q0.359375 0.09375 0.546875 0.171875l-0.40625 1.921875q-0.359375 -0.203125 -1.125 -0.40625q-0.765625 -0.203125 -1.84375 -0.203125q-0.9375 0 -1.640625 0.375q-0.6875 0.375 -0.6875 1.15625q0 0.421875 0.15625 0.734375q0.15625 0.296875 0.46875 0.5625q0.328125 0.25 0.796875 0.46875q0.484375 0.203125 1.15625 0.453125q0.890625 0.328125 1.578125 0.65625q0.703125 0.328125 1.1875 0.765625q0.5 0.421875 0.765625 1.03125q0.265625 0.609375 0.265625 1.5q0 1.734375 -1.28125 2.625q-1.28125 0.875 -3.65625 0.875q-1.65625 0 -2.59375 -0.28125q-0.9375 -0.265625 -1.28125 -0.40625l0.421875 -1.921875q0.375 0.140625 1.21875 0.4375q0.84375 0.28125 2.234375 0.28125zm12.016464 0q0.796875 0 1.40625 -0.03125q0.609375 -0.046875 1.015625 -0.140625l0 -3.71875q-0.234375 -0.109375 -0.78125 -0.1875q-0.53125 -0.09375 -1.296875 -0.09375q-0.515625 0 -1.078125 0.078125q-0.5625 0.0625 -1.03125 0.296875q-0.46875 0.21875 -0.78125 0.625q-0.3125 0.390625 -0.3125 1.03125q0 1.203125 0.765625 1.671875q0.78125 0.46875 2.09375 0.46875zm-0.1875 -11.1875q1.34375 0 2.265625 0.359375q0.921875 0.34375 1.484375 0.984375q0.5625 0.625 0.796875 1.5q0.25 0.875 0.25 1.9375l0 7.796875q-0.28125 0.046875 -0.796875 0.140625q-0.515625 0.078125 -1.171875 0.140625q-0.640625 0.078125 -1.40625 0.140625q-0.75 0.0625 -1.5 0.0625q-1.046875 0 -1.9375 -0.21875q-0.890625 -0.21875 -1.546875 -0.6875q-0.640625 -0.46875 -1.0 -1.234375q-0.359375 -0.765625 -0.359375 -1.84375q0 -1.03125 0.421875 -1.765625q0.421875 -0.75 1.140625 -1.203125q0.71875 -0.46875 1.671875 -0.671875q0.96875 -0.21875 2.015625 -0.21875q0.34375 0 0.703125 0.03125q0.359375 0.03125 0.671875 0.09375q0.328125 0.0625 0.5625 0.109375q0.25 0.046875 0.34375 0.078125l0 -0.625q0 -0.5625 -0.125 -1.09375q-0.109375 -0.546875 -0.421875 -0.96875q-0.3125 -0.421875 -0.859375 -0.671875q-0.53125 -0.25 -1.390625 -0.25q-1.109375 0 -1.9375 0.15625q-0.828125 0.15625 -1.234375 0.328125l-0.265625 -1.84375q0.4375 -0.203125 1.4375 -0.375q1.015625 -0.1875 2.1875 -0.1875zm16.324844 11.546875q-0.296875 0.1875 -1.125 0.5q-0.828125 0.296875 -1.921875 0.296875q-1.140625 0 -2.140625 -0.359375q-0.984375 -0.359375 -1.734375 -1.109375q-0.734375 -0.765625 -1.171875 -1.890625q-0.4375 -1.125 -0.4375 -2.6875q0 -1.375 0.40625 -2.515625q0.421875 -1.140625 1.1875 -1.96875q0.78125 -0.828125 1.90625 -1.296875q1.140625 -0.46875 2.546875 -0.46875q1.5625 0 2.71875 0.234375q1.171875 0.234375 1.96875 0.421875l0 11.140625q0 2.875 -1.5 4.171875q-1.484375 1.296875 -4.5 1.296875q-1.171875 0 -2.21875 -0.203125q-1.046875 -0.1875 -1.8125 -0.453125l0.40625 -1.9375q0.671875 0.265625 1.640625 0.46875q0.96875 0.203125 2.03125 0.203125q1.984375 0 2.859375 -0.796875q0.890625 -0.78125 0.890625 -2.515625l0 -0.53125zm-0.03125 -9.265625q-0.328125 -0.09375 -0.90625 -0.171875q-0.5625 -0.09375 -1.515625 -0.09375q-1.796875 0 -2.78125 1.1875q-0.96875 1.171875 -0.96875 3.109375q0 1.078125 0.28125 1.859375q0.28125 0.765625 0.75 1.265625q0.46875 0.5 1.078125 0.75q0.609375 0.234375 1.25 0.234375q0.890625 0 1.625 -0.25q0.75 -0.25 1.1875 -0.59375l0 -7.296875zm8.3094635 10.515625l-2.234375 0l0 -12.484375l2.234375 0l0 12.484375zm-1.125 -14.734375q-0.609375 0 -1.03125 -0.390625q-0.421875 -0.40625 -0.421875 -1.078125q0 -0.671875 0.421875 -1.0625q0.421875 -0.390625 1.03125 -0.390625q0.59375 0 1.015625 0.390625q0.421875 0.390625 0.421875 1.0625q0 0.671875 -0.421875 1.078125q-0.421875 0.390625 -1.015625 0.390625zm4.9626007 2.609375q0.765625 -0.1875 2.03125 -0.40625q1.28125 -0.21875 2.9375 -0.21875q1.484375 0 2.46875 0.421875q0.984375 0.421875 1.5625 1.1875q0.59375 0.75 0.828125 1.8125q0.25 1.046875 0.25 2.3125l0 7.015625l-2.234375 0l0 -6.53125q0 -1.15625 -0.15625 -1.96875q-0.15625 -0.8125 -0.515625 -1.3125q-0.359375 -0.5 -0.96875 -0.734375q-0.59375 -0.234375 -1.484375 -0.234375q-0.359375 0 -0.75 0.03125q-0.375 0.015625 -0.71875 0.0625q-0.34375 0.03125 -0.625 0.078125q-0.28125 0.046875 -0.390625 0.078125l0 10.53125l-2.234375 0l0 -12.125zm21.604095 10.875q-0.296875 0.1875 -1.125 0.5q-0.828125 0.296875 -1.921875 0.296875q-1.140625 0 -2.140625 -0.359375q-0.98439026 -0.359375 -1.7343903 -1.109375q-0.734375 -0.765625 -1.171875 -1.890625q-0.4375 -1.125 -0.4375 -2.6875q0 -1.375 0.40625 -2.515625q0.421875 -1.140625 1.1875 -1.96875q0.78125 -0.828125 1.9062653 -1.296875q1.140625 -0.46875 2.546875 -0.46875q1.5625 0 2.71875 0.234375q1.171875 0.234375 1.96875 0.421875l0 11.140625q0 2.875 -1.5 4.171875q-1.484375 1.296875 -4.5 1.296875q-1.171875 0 -2.2187653 -0.203125q-1.046875 -0.1875 -1.8125 -0.453125l0.40625 -1.9375q0.671875 0.265625 1.640625 0.46875q0.96876526 0.203125 2.0312653 0.203125q1.984375 0 2.859375 -0.796875q0.890625 -0.78125 0.890625 -2.515625l0 -0.53125zm-0.03125 -9.265625q-0.328125 -0.09375 -0.90625 -0.171875q-0.5625 -0.09375 -1.515625 -0.09375q-1.796875 0 -2.78125 1.1875q-0.96876526 1.171875 -0.96876526 3.109375q0 1.078125 0.28125 1.859375q0.28125 0.765625 0.75001526 1.265625q0.46875 0.5 1.078125 0.75q0.609375 0.234375 1.25 0.234375q0.890625 0 1.625 -0.25q0.75 -0.25 1.1875 -0.59375l0 -7.296875z" fill-rule="nonzero"></path><path fill="#000000" d="m149.76616 272.58594q-0.40625 -1.078125 -0.765625 -2.125q-0.359375 -1.046875 -0.75 -2.125l-7.53125 0l-1.515625 4.25l-2.421875 0q0.96875 -2.640625 1.796875 -4.875q0.84375 -2.25 1.640625 -4.265625q0.8125 -2.015625 1.609375 -3.84375q0.796875 -1.84375 1.65625 -3.640625l2.140625 0q0.859375 1.796875 1.640625 3.640625q0.796875 1.828125 1.59375 3.84375q0.8125 2.015625 1.65625 4.265625q0.84375 2.234375 1.796875 4.875l-2.546875 0zm-2.1875 -6.171875q-0.765625 -2.078125 -1.515625 -4.03125q-0.75 -1.96875 -1.578125 -3.765625q-0.828125 1.796875 -1.59375 3.765625q-0.75 1.953125 -1.5 4.03125l6.1875 0zm12.271332 6.453125q-1.515625 0 -2.65625 -0.46875q-1.140625 -0.484375 -1.921875 -1.34375q-0.78125 -0.875 -1.171875 -2.0625q-0.375 -1.1875 -0.375 -2.625q0 -1.4375 0.421875 -2.640625q0.421875 -1.203125 1.1875 -2.078125q0.765625 -0.875 1.875 -1.359375q1.125 -0.5 2.5 -0.5q0.84375 0 1.671875 0.15625q0.84375 0.140625 1.609375 0.453125l-0.5 1.890625q-0.5 -0.234375 -1.171875 -0.375q-0.65625 -0.15625 -1.390625 -0.15625q-1.875 0 -2.875 1.1875q-1.0 1.171875 -1.0 3.421875q0 1.015625 0.234375 1.859375q0.234375 0.828125 0.71875 1.4375q0.484375 0.59375 1.25 0.921875q0.78125 0.3125 1.875 0.3125q0.890625 0 1.609375 -0.15625q0.71875 -0.171875 1.140625 -0.359375l0.3125 1.859375q-0.203125 0.125 -0.5625 0.234375q-0.359375 0.109375 -0.8125 0.1875q-0.453125 0.09375 -0.96875 0.140625q-0.515625 0.0625 -1.0 0.0625zm7.831848 -12.765625l4.71875 0l0 1.875l-4.71875 0l0 5.765625q0 0.9375 0.140625 1.546875q0.140625 0.609375 0.421875 0.96875q0.296875 0.34375 0.71875 0.484375q0.4375 0.140625 1.015625 0.140625q1.0 0 1.609375 -0.21875q0.625 -0.234375 0.859375 -0.328125l0.4375 1.84375q-0.34375 0.171875 -1.1875 0.421875q-0.828125 0.25 -1.90625 0.25q-1.28125 0 -2.109375 -0.328125q-0.828125 -0.328125 -1.328125 -0.96875q-0.5 -0.65625 -0.703125 -1.59375q-0.203125 -0.953125 -0.203125 -2.203125l0 -11.125l2.234375 -0.390625l0 3.859375zm9.7885895 12.484375l-2.234375 0l0 -12.484375l2.234375 0l0 12.484375zm-1.125 -14.734375q-0.609375 0 -1.03125 -0.390625q-0.421875 -0.40625 -0.421875 -1.078125q0 -0.671875 0.421875 -1.0625q0.421875 -0.390625 1.03125 -0.390625q0.59375 0 1.015625 0.390625q0.421875 0.390625 0.421875 1.0625q0 0.671875 -0.421875 1.078125q-0.421875 0.390625 -1.015625 0.390625zm14.696976 2.25q-0.921875 3.515625 -2.1875 6.734375q-1.265625 3.203125 -2.4375 5.75l-2.015625 0q-1.171875 -2.546875 -2.4375 -5.75q-1.265625 -3.21875 -2.1875 -6.734375l2.390625 0q0.296875 1.1875 0.6875 2.515625q0.390625 1.328125 0.828125 2.640625q0.453125 1.296875 0.90625 2.53125q0.453125 1.21875 0.875 2.1875q0.40625 -0.96875 0.859375 -2.1875q0.453125 -1.234375 0.890625 -2.53125q0.453125 -1.3125 0.84375 -2.640625q0.40625 -1.328125 0.6875 -2.515625l2.296875 0zm4.5479584 12.484375l-2.234375 0l0 -12.484375l2.234375 0l0 12.484375zm-1.125 -14.734375q-0.609375 0 -1.03125 -0.390625q-0.421875 -0.40625 -0.421875 -1.078125q0 -0.671875 0.421875 -1.0625q0.421875 -0.390625 1.03125 -0.390625q0.59375 0 1.015625 0.390625q0.421875 0.390625 0.421875 1.0625q0 0.671875 -0.421875 1.078125q-0.421875 0.390625 -1.015625 0.390625zm7.0563507 2.25l4.71875 0l0 1.875l-4.71875 0l0 5.765625q0 0.9375 0.140625 1.546875q0.140625 0.609375 0.421875 0.96875q0.296875 0.34375 0.71875 0.484375q0.4375 0.140625 1.015625 0.140625q1.0 0 1.609375 -0.21875q0.625 -0.234375 0.859375 -0.328125l0.4375 1.84375q-0.34375 0.171875 -1.1875 0.421875q-0.828125 0.25 -1.90625 0.25q-1.28125 0 -2.109375 -0.328125q-0.828125 -0.328125 -1.328125 -0.96875q-0.5 -0.65625 -0.703125 -1.59375q-0.203125 -0.953125 -0.203125 -2.203125l0 -11.125l2.234375 -0.390625l0 3.859375zm6.0854645 14.8125q0.265625 0.125 0.6875 0.21875q0.421875 0.109375 0.828125 0.109375q1.3125 0 2.0625 -0.59375q0.75 -0.578125 1.34375 -1.890625q-1.515625 -2.890625 -2.828125 -6.109375q-1.296875 -3.234375 -2.15625 -6.546875l2.390625 0q0.265625 1.078125 0.640625 2.328125q0.375 1.25 0.828125 2.578125q0.453125 1.3125 0.984375 2.640625q0.53125 1.3125 1.109375 2.53125q0.90625 -2.515625 1.578125 -4.984375q0.671875 -2.46875 1.265625 -5.09375l2.3125 0q-0.875 3.53125 -1.9375 6.78125q-1.046875 3.25 -2.265625 6.09375q-0.484375 1.078125 -1.0 1.859375q-0.515625 0.78125 -1.140625 1.28125q-0.625 0.5 -1.40625 0.734375q-0.78125 0.25 -1.765625 0.25q-0.25 0 -0.546875 -0.046875q-0.28125 -0.03125 -0.5625 -0.09375q-0.28125 -0.0625 -0.515625 -0.140625q-0.21875 -0.0625 -0.3125 -0.109375l0.40625 -1.796875zm19.08133 -2.328125l0 -16.625l10.03125 0l0 1.984375l-7.703125 0l0 5.015625l6.84375 0l0 1.96875l-6.84375 0l0 7.65625l-2.328125 0zm12.044205 -6.21875q0 -1.65625 0.484375 -2.890625q0.484375 -1.234375 1.265625 -2.046875q0.796875 -0.8125 1.828125 -1.21875q1.03125 -0.421875 2.109375 -0.421875q2.53125 0 3.875 1.578125q1.34375 1.578125 1.34375 4.78125q0 0.15625 0 0.390625q0 0.21875 -0.03125 0.40625l-8.546875 0q0.15625 1.9375 1.125 2.953125q0.984375 1.0 3.078125 1.0q1.171875 0 1.96875 -0.203125q0.8125 -0.203125 1.21875 -0.390625l0.3125 1.875q-0.40625 0.21875 -1.421875 0.453125q-1.015625 0.234375 -2.3125 0.234375q-1.640625 0 -2.828125 -0.484375q-1.1875 -0.5 -1.953125 -1.359375q-0.765625 -0.859375 -1.140625 -2.046875q-0.375 -1.1875 -0.375 -2.609375zm8.578125 -1.21875q0.015625 -1.515625 -0.765625 -2.484375q-0.78125 -0.96875 -2.140625 -0.96875q-0.765625 0 -1.359375 0.296875q-0.59375 0.296875 -1.0 0.78125q-0.40625 0.46875 -0.640625 1.09375q-0.21875 0.625 -0.296875 1.28125l6.203125 0zm4.8378296 1.21875q0 -1.65625 0.484375 -2.890625q0.484375 -1.234375 1.265625 -2.046875q0.796875 -0.8125 1.828125 -1.21875q1.0312653 -0.421875 2.1093903 -0.421875q2.53125 0 3.875 1.578125q1.34375 1.578125 1.34375 4.78125q0 0.15625 0 0.390625q0 0.21875 -0.03125 0.40625l-8.54689 0q0.15625 1.9375 1.125 2.953125q0.98439026 1.0 3.0781403 1.0q1.171875 0 1.96875 -0.203125q0.8125 -0.203125 1.21875 -0.390625l0.3125 1.875q-0.40625 0.21875 -1.421875 0.453125q-1.015625 0.234375 -2.3125 0.234375q-1.640625 0 -2.8281403 -0.484375q-1.1875 -0.5 -1.953125 -1.359375q-0.765625 -0.859375 -1.140625 -2.046875q-0.375 -1.1875 -0.375 -2.609375zm8.57814 -1.21875q0.015625 -1.515625 -0.765625 -2.484375q-0.78125 -0.96875 -2.140625 -0.96875q-0.765625 0 -1.359375 0.296875q-0.59376526 0.296875 -1.0000153 0.78125q-0.40625 0.46875 -0.640625 1.09375q-0.21875 0.625 -0.296875 1.28125l6.2031403 0zm13.603455 -2.40625q-0.40625 -0.328125 -1.171875 -0.640625q-0.765625 -0.3125 -1.6875 -0.3125q-0.953125 0 -1.640625 0.34375q-0.6875 0.34375 -1.125 0.96875q-0.421875 0.609375 -0.625 1.453125q-0.1875 0.828125 -0.1875 1.796875q0 2.171875 1.078125 3.359375q1.09375 1.1875 2.890625 1.1875q0.90625 0 1.515625 -0.078125q0.609375 -0.078125 0.953125 -0.171875l0 -7.90625zm0 -8.390625l2.234375 -0.390625l0 18.265625q-0.765625 0.21875 -1.96875 0.421875q-1.203125 0.21875 -2.765625 0.21875q-1.4375 0 -2.59375 -0.453125q-1.140625 -0.453125 -1.96875 -1.28125q-0.8125 -0.84375 -1.265625 -2.0625q-0.4375 -1.21875 -0.4375 -2.71875q0 -1.453125 0.375 -2.640625q0.375 -1.203125 1.09375 -2.0625q0.71875 -0.875 1.765625 -1.34375q1.046875 -0.484375 2.390625 -0.484375q1.078125 0 1.90625 0.296875q0.828125 0.28125 1.234375 0.546875l0 -6.3125z" fill-rule="nonzero"></path><path fill="#000000" d="m146.05626 300.52344q-1.625 0 -2.828125 -0.5q-1.203125 -0.5 -1.96875 -1.375q-0.765625 -0.890625 -1.140625 -2.078125q-0.375 -1.203125 -0.375 -2.59375l0 -10.4375l2.328125 0l0 10.171875q0 2.5 1.109375 3.625q1.109375 1.125 2.875 1.125q0.890625 0 1.625 -0.265625q0.734375 -0.28125 1.25 -0.859375q0.53125 -0.578125 0.8125 -1.46875q0.296875 -0.90625 0.296875 -2.15625l0 -10.171875l2.328125 0l0 10.4375q0 1.390625 -0.375 2.59375q-0.359375 1.1875 -1.140625 2.078125q-0.78125 0.875 -1.96875 1.375q-1.1875 0.5 -2.828125 0.5zm13.090073 -1.96875q1.359375 0 2.015625 -0.359375q0.671875 -0.359375 0.671875 -1.15625q0 -0.8125 -0.65625 -1.28125q-0.640625 -0.484375 -2.125 -1.09375q-0.71875 -0.28125 -1.390625 -0.578125q-0.65625 -0.3125 -1.140625 -0.71875q-0.46875 -0.40625 -0.765625 -0.984375q-0.28125 -0.578125 -0.28125 -1.40625q0 -1.65625 1.21875 -2.625q1.21875 -0.984375 3.34375 -0.984375q0.515625 0 1.046875 0.0625q0.53125 0.0625 0.984375 0.15625q0.453125 0.078125 0.796875 0.171875q0.359375 0.09375 0.546875 0.171875l-0.40625 1.921875q-0.359375 -0.203125 -1.125 -0.40625q-0.765625 -0.203125 -1.84375 -0.203125q-0.9375 0 -1.640625 0.375q-0.6875 0.375 -0.6875 1.15625q0 0.421875 0.15625 0.734375q0.15625 0.296875 0.46875 0.5625q0.328125 0.25 0.796875 0.46875q0.484375 0.203125 1.15625 0.453125q0.890625 0.328125 1.578125 0.65625q0.703125 0.328125 1.1875 0.765625q0.5 0.421875 0.765625 1.03125q0.265625 0.609375 0.265625 1.5q0 1.734375 -1.28125 2.625q-1.28125 0.875 -3.65625 0.875q-1.65625 0 -2.59375 -0.28125q-0.9375 -0.265625 -1.28125 -0.40625l0.421875 -1.921875q0.375 0.140625 1.21875 0.4375q0.84375 0.28125 2.234375 0.28125zm7.094589 -4.609375q0 -1.65625 0.484375 -2.890625q0.484375 -1.234375 1.265625 -2.046875q0.796875 -0.8125 1.828125 -1.21875q1.03125 -0.421875 2.109375 -0.421875q2.53125 0 3.875 1.578125q1.34375 1.578125 1.34375 4.78125q0 0.15625 0 0.390625q0 0.21875 -0.03125 0.40625l-8.546875 0q0.15625 1.9375 1.125 2.953125q0.984375 1.0 3.078125 1.0q1.171875 0 1.96875 -0.203125q0.8125 -0.203125 1.21875 -0.390625l0.3125 1.875q-0.40625 0.21875 -1.421875 0.453125q-1.015625 0.234375 -2.3125 0.234375q-1.640625 0 -2.828125 -0.484375q-1.1875 -0.5 -1.953125 -1.359375q-0.765625 -0.859375 -1.140625 -2.046875q-0.375 -1.1875 -0.375 -2.609375zm8.578125 -1.21875q0.015625 -1.515625 -0.765625 -2.484375q-0.78125 -0.96875 -2.140625 -0.96875q-0.765625 0 -1.359375 0.296875q-0.59375 0.296875 -1.0 0.78125q-0.40625 0.46875 -0.640625 1.09375q-0.21875 0.625 -0.296875 1.28125l6.203125 0zm10.15033 -5.3125q0.28125 0 0.65625 0.046875q0.375 0.03125 0.734375 0.09375q0.359375 0.0625 0.65625 0.125q0.296875 0.046875 0.453125 0.09375l-0.390625 1.953125q-0.265625 -0.09375 -0.875 -0.21875q-0.609375 -0.140625 -1.578125 -0.140625q-0.625 0 -1.234375 0.140625q-0.609375 0.125 -0.796875 0.171875l0 10.484375l-2.234375 0l0 -11.953125q0.796875 -0.28125 1.96875 -0.53125q1.171875 -0.265625 2.640625 -0.265625zm14.761093 -4.046875q3.5 0 5.375 1.328125q1.890625 1.328125 1.890625 3.96875q0 1.4375 -0.515625 2.46875q-0.515625 1.015625 -1.484375 1.65625q-0.96875 0.625 -2.375 0.921875q-1.390625 0.28125 -3.140625 0.28125l-1.84375 0l0 6.171875l-2.328125 0l0 -16.390625q0.984375 -0.234375 2.1875 -0.3125q1.21875 -0.09375 2.234375 -0.09375zm0.1875 2.03125q-1.484375 0 -2.28125 0.078125l0 6.53125l1.75 0q1.203125 0 2.15625 -0.15625q0.96875 -0.15625 1.625 -0.53125q0.65625 -0.375 1.015625 -1.015625q0.359375 -0.65625 0.359375 -1.65625q0 -0.96875 -0.375 -1.59375q-0.359375 -0.625 -1.0 -0.984375q-0.640625 -0.375 -1.484375 -0.515625q-0.828125 -0.15625 -1.765625 -0.15625zm14.45134 2.015625q0.28125 0 0.65625 0.046875q0.375 0.03125 0.734375 0.09375q0.359375 0.0625 0.65625 0.125q0.296875 0.046875 0.453125 0.09375l-0.390625 1.953125q-0.265625 -0.09375 -0.875 -0.21875q-0.609375 -0.140625 -1.578125 -0.140625q-0.625 0 -1.234375 0.140625q-0.609375 0.125 -0.796875 0.171875l0 10.484375l-2.234375 0l0 -11.953125q0.796875 -0.28125 1.96875 -0.53125q1.171875 -0.265625 2.640625 -0.265625zm15.670227 6.515625q0 1.484375 -0.4375 2.6875q-0.421875 1.1875 -1.203125 2.0625q-0.78125 0.859375 -1.859375 1.328125q-1.078125 0.46875 -2.359375 0.46875q-1.265625 0 -2.359375 -0.46875q-1.078125 -0.46875 -1.859375 -1.328125q-0.765625 -0.875 -1.203125 -2.0625q-0.4375 -1.203125 -0.4375 -2.6875q0 -1.46875 0.4375 -2.671875q0.4375 -1.21875 1.203125 -2.078125q0.78125 -0.875 1.859375 -1.34375q1.09375 -0.46875 2.359375 -0.46875q1.28125 0 2.359375 0.46875q1.078125 0.46875 1.859375 1.34375q0.78125 0.859375 1.203125 2.078125q0.4375 1.203125 0.4375 2.671875zm-2.328125 0q0 -2.125 -0.953125 -3.359375q-0.9375 -1.234375 -2.578125 -1.234375q-1.625 0 -2.578125 1.234375q-0.953125 1.234375 -0.953125 3.359375q0 2.109375 0.953125 3.34375q0.953125 1.234375 2.578125 1.234375q1.640625 0 2.578125 -1.234375q0.953125 -1.234375 0.953125 -3.34375zm10.347458 -12.390625q0.984375 0 1.6875 0.140625q0.703125 0.140625 1.0 0.265625l-0.40625 1.921875q-0.296875 -0.140625 -0.828125 -0.265625q-0.515625 -0.140625 -1.296875 -0.140625q-1.546875 0 -2.171875 0.859375q-0.625 0.84375 -0.625 2.28125l0 1.078125l4.796875 0l0 1.875l-4.796875 0l0 10.609375l-2.234375 0l0 -13.609375q0 -2.40625 1.171875 -3.703125q1.171875 -1.3125 3.703125 -1.3125zm6.623352 18.625l-2.234375 0l0 -12.484375l2.234375 0l0 12.484375zm-1.125 -14.734375q-0.609375 0 -1.03125 -0.390625q-0.421875 -0.40625 -0.421875 -1.078125q0 -0.671875 0.421875 -1.0625q0.421875 -0.390625 1.03125 -0.390625q0.59375 0 1.015625 0.390625q0.421875 0.390625 0.421875 1.0625q0 0.671875 -0.421875 1.078125q-0.421875 0.390625 -1.015625 0.390625zm8.696976 14.96875q-2.0625 -0.046875 -2.921875 -0.875q-0.859375 -0.84375 -0.859375 -2.625l0 -14.96875l2.234375 -0.390625l0 15.0q0 0.546875 0.09375 0.90625q0.09375 0.359375 0.3125 0.578125q0.21875 0.21875 0.578125 0.328125q0.359375 0.109375 0.875 0.1875l-0.3125 1.859375zm2.1144867 -6.453125q0 -1.65625 0.484375 -2.890625q0.484375 -1.234375 1.265625 -2.046875q0.796875 -0.8125 1.828125 -1.21875q1.03125 -0.421875 2.109375 -0.421875q2.53125 0 3.875 1.578125q1.34375 1.578125 1.34375 4.78125q0 0.15625 0 0.390625q0 0.21875 -0.03125 0.40625l-8.546875 0q0.15625 1.9375 1.125 2.953125q0.984375 1.0 3.078125 1.0q1.171875 0 1.96875 -0.203125q0.8125 -0.203125 1.21875 -0.390625l0.3125 1.875q-0.40625 0.21875 -1.421875 0.453125q-1.015625 0.234375 -2.3125 0.234375q-1.640625 0 -2.828125 -0.484375q-1.1875 -0.5 -1.953125 -1.359375q-0.765625 -0.859375 -1.140625 -2.046875q-0.375 -1.1875 -0.375 -2.609375zm8.578125 -1.21875q0.015625 -1.515625 -0.765625 -2.484375q-0.78125 -0.96875 -2.140625 -0.96875q-0.765625 0 -1.359375 0.296875q-0.59375 0.296875 -1.0 0.78125q-0.40625 0.46875 -0.640625 1.09375q-0.21875 0.625 -0.296875 1.28125l6.203125 0zm8.447205 5.828125q1.359375 0 2.015625 -0.359375q0.671875 -0.359375 0.671875 -1.15625q0 -0.8125 -0.65625 -1.28125q-0.640625 -0.484375 -2.125 -1.09375q-0.71875 -0.28125 -1.390625 -0.578125q-0.65625 -0.3125 -1.140625 -0.71875q-0.46875 -0.40625 -0.765625 -0.984375q-0.28125 -0.578125 -0.28125 -1.40625q0 -1.65625 1.21875 -2.625q1.21875 -0.984375 3.34375 -0.984375q0.515625 0 1.046875 0.0625q0.53125 0.0625 0.984375 0.15625q0.453125 0.078125 0.796875 0.171875q0.359375 0.09375 0.546875 0.171875l-0.40625 1.921875q-0.359375 -0.203125 -1.125 -0.40625q-0.765625 -0.203125 -1.84375 -0.203125q-0.9375 0 -1.640625 0.375q-0.6875 0.375 -0.6875 1.15625q0 0.421875 0.15625 0.734375q0.15625 0.296875 0.46875 0.5625q0.328125 0.25 0.796875 0.46875q0.484375 0.203125 1.15625 0.453125q0.890625 0.328125 1.578125 0.65625q0.703125 0.328125 1.1875 0.765625q0.5 0.421875 0.765625 1.03125q0.265625 0.609375 0.265625 1.5q0 1.734375 -1.28125 2.625q-1.28125 0.875 -3.65625 0.875q-1.65625 0 -2.59375 -0.28125q-0.9375 -0.265625 -1.28125 -0.40625l0.421875 -1.921875q0.375 0.140625 1.21875 0.4375q0.84375 0.28125 2.234375 0.28125z" fill-rule="nonzero"></path><path fill="#000000" d="m159.62659 310.9453q3.5 0 5.375 1.328125q1.890625 1.328125 1.890625 3.96875q0 1.4375 -0.515625 2.46875q-0.515625 1.015625 -1.484375 1.65625q-0.96875 0.625 -2.375 0.921875q-1.390625 0.28125 -3.140625 0.28125l-1.84375 0l0 6.171875l-2.328125 0l0 -16.390625q0.984375 -0.234375 2.1875 -0.3125q1.21875 -0.09375 2.234375 -0.09375zm0.1875 2.03125q-1.484375 0 -2.28125 0.078125l0 6.53125l1.75 0q1.203125 0 2.15625 -0.15625q0.96875 -0.15625 1.625 -0.53125q0.65625 -0.375 1.015625 -1.015625q0.359375 -0.65625 0.359375 -1.65625q0 -0.96875 -0.375 -1.59375q-0.359375 -0.625 -1.0 -0.984375q-0.640625 -0.375 -1.484375 -0.515625q-0.828125 -0.15625 -1.765625 -0.15625zm19.779465 14.40625q-0.765625 0.1875 -2.03125 0.40625q-1.265625 0.21875 -2.921875 0.21875q-1.4375 0 -2.421875 -0.421875q-0.984375 -0.421875 -1.59375 -1.1875q-0.59375 -0.765625 -0.859375 -1.8125q-0.25 -1.046875 -0.25 -2.3125l0 -7.015625l2.234375 0l0 6.53125q0 2.28125 0.71875 3.265625q0.71875 0.984375 2.421875 0.984375q0.359375 0 0.734375 -0.015625q0.390625 -0.03125 0.71875 -0.0625q0.34375 -0.046875 0.609375 -0.078125q0.28125 -0.03125 0.40625 -0.078125l0 -10.546875l2.234375 0l0 12.125zm6.07283 -11.5625q0.40625 -0.265625 1.234375 -0.546875q0.828125 -0.296875 1.90625 -0.296875q1.34375 0 2.390625 0.484375q1.046875 0.46875 1.765625 1.34375q0.71875 0.859375 1.078125 2.0625q0.375 1.1875 0.375 2.640625q0 1.5 -0.4375 2.71875q-0.4375 1.21875 -1.265625 2.0625q-0.8125 0.828125 -1.96875 1.28125q-1.140625 0.453125 -2.59375 0.453125q-1.546875 0 -2.75 -0.21875q-1.203125 -0.203125 -1.96875 -0.421875l0 -17.875l2.234375 -0.390625l0 6.703125zm0 9.984375q0.328125 0.09375 0.9375 0.171875q0.625 0.078125 1.53125 0.078125q1.796875 0 2.875 -1.1875q1.078125 -1.1875 1.078125 -3.359375q0 -0.96875 -0.1875 -1.796875q-0.1875 -0.84375 -0.625 -1.453125q-0.421875 -0.625 -1.109375 -0.96875q-0.6875 -0.34375 -1.640625 -0.34375q-0.921875 0 -1.6875 0.3125q-0.765625 0.3125 -1.171875 0.640625l0 7.90625zm15.635956 2.171875q-2.0625 -0.046875 -2.921875 -0.875q-0.859375 -0.84375 -0.859375 -2.625l0 -14.96875l2.234375 -0.390625l0 15.0q0 0.546875 0.09375 0.90625q0.09375 0.359375 0.3125 0.578125q0.21875 0.21875 0.578125 0.328125q0.359375 0.109375 0.875 0.1875l-0.3125 1.859375zm5.0519867 -0.234375l-2.234375 0l0 -12.484375l2.234375 0l0 12.484375zm-1.125 -14.734375q-0.609375 0 -1.03125 -0.390625q-0.421875 -0.40625 -0.421875 -1.078125q0 -0.671875 0.421875 -1.0625q0.421875 -0.390625 1.03125 -0.390625q0.59375 0 1.015625 0.390625q0.421875 0.390625 0.421875 1.0625q0 0.671875 -0.421875 1.078125q-0.421875 0.390625 -1.015625 0.390625zm10.384476 15.015625q-1.515625 0 -2.65625 -0.46875q-1.140625 -0.484375 -1.921875 -1.34375q-0.78125 -0.875 -1.171875 -2.0625q-0.375 -1.1875 -0.375 -2.625q0 -1.4375 0.421875 -2.640625q0.421875 -1.203125 1.1875 -2.078125q0.765625 -0.875 1.875 -1.359375q1.125 -0.5 2.5 -0.5q0.84375 0 1.671875 0.15625q0.84375 0.140625 1.609375 0.453125l-0.5 1.890625q-0.5 -0.234375 -1.171875 -0.375q-0.65625 -0.15625 -1.390625 -0.15625q-1.875 0 -2.875 1.1875q-1.0 1.171875 -1.0 3.421875q0 1.015625 0.234375 1.859375q0.234375 0.828125 0.71875 1.4375q0.484375 0.59375 1.25 0.921875q0.78125 0.3125 1.875 0.3125q0.890625 0 1.609375 -0.15625q0.71875 -0.171875 1.140625 -0.359375l0.3125 1.859375q-0.203125 0.125 -0.5625 0.234375q-0.359375 0.109375 -0.8125 0.1875q-0.453125 0.09375 -0.96875 0.140625q-0.515625 0.0625 -1.0 0.0625zm22.532074 -0.28125q-0.40625 -1.078125 -0.765625 -2.125q-0.359375 -1.046875 -0.75 -2.125l-7.53125 0l-1.515625 4.25l-2.421875 0q0.96875 -2.640625 1.796875 -4.875q0.84375 -2.25 1.640625 -4.265625q0.8125 -2.015625 1.609375 -3.84375q0.796875 -1.84375 1.65625 -3.640625l2.140625 0q0.859375 1.796875 1.640625 3.640625q0.796875 1.828125 1.59375 3.84375q0.8125 2.015625 1.65625 4.265625q0.84375 2.234375 1.796875 4.875l-2.546875 0zm-2.1875 -6.171875q-0.765625 -2.078125 -1.515625 -4.03125q-0.75 -1.96875 -1.578125 -3.765625q-0.828125 1.796875 -1.59375 3.765625q-0.75 1.953125 -1.5 4.03125l6.1875 0zm11.411957 -10.625q3.5 0 5.375 1.328125q1.890625 1.328125 1.890625 3.96875q0 1.4375 -0.515625 2.46875q-0.515625 1.015625 -1.484375 1.65625q-0.96875 0.625 -2.375 0.921875q-1.390625 0.28125 -3.140625 0.28125l-1.84375 0l0 6.171875l-2.328125 0l0 -16.390625q0.984375 -0.234375 2.1875 -0.3125q1.21875 -0.09375 2.234375 -0.09375zm0.1875 2.03125q-1.484375 0 -2.28125 0.078125l0 6.53125l1.75 0q1.203125 0 2.15625 -0.15625q0.96875 -0.15625 1.625 -0.53125q0.65625 -0.375 1.015625 -1.015625q0.359375 -0.65625 0.359375 -1.65625q0 -0.96875 -0.375 -1.59375q-0.359375 -0.625 -1.0 -0.984375q-0.640625 -0.375 -1.484375 -0.515625q-0.828125 -0.15625 -1.765625 -0.15625zm9.982605 -1.859375l2.328125 0l0 16.625l-2.328125 0l0 -16.625z" fill-rule="nonzero"></path><path fill="#6aa84f" d="m568.4724 408.0l0 0c0 -54.06302 43.826782 -97.88977 97.88977 -97.88977l0 0c25.961975 0 50.860657 10.3133545 69.21857 28.671265c18.35785 18.35788 28.671204 43.25653 28.671204 69.218506l0 0c0 54.06302 -43.82672 97.88977 -97.88977 97.88977l0 0c-54.06299 0 -97.88977 -43.82675 -97.88977 -97.88977z" fill-rule="nonzero"></path><path fill="#000000" d="m627.4652 416.72656q-0.5 0 -1.09375 -0.03125q-0.578125 -0.015625 -1.171875 -0.0625q-0.578125 -0.046875 -1.15625 -0.109375q-0.578125 -0.078125 -1.0625 -0.203125l0 -16.125q0.484375 -0.125 1.0625 -0.1875q0.578125 -0.078125 1.15625 -0.125q0.59375 -0.046875 1.171875 -0.0625q0.578125 -0.03125 1.078125 -0.03125q1.4375 0 2.6875 0.21875q1.265625 0.203125 2.1875 0.71875q0.9375 0.515625 1.453125 1.359375q0.53125 0.84375 0.53125 2.0625q0 1.375 -0.65625 2.25q-0.640625 0.875 -1.71875 1.3125q1.46875 0.421875 2.328125 1.359375q0.859375 0.9375 0.859375 2.640625q0 2.5 -1.84375 3.765625q-1.828125 1.25 -5.8125 1.25zm-2.171875 -7.890625l0 5.859375q0.25 0.015625 0.609375 0.046875q0.3125 0.015625 0.734375 0.03125q0.421875 0.015625 0.984375 0.015625q1.03125 0 1.953125 -0.125q0.921875 -0.140625 1.609375 -0.46875q0.703125 -0.34375 1.125 -0.9375q0.421875 -0.609375 0.421875 -1.515625q0 -0.8125 -0.3125 -1.375q-0.3125 -0.578125 -0.90625 -0.90625q-0.578125 -0.34375 -1.40625 -0.484375q-0.8125 -0.140625 -1.8125 -0.140625l-3.0 0zm0 -1.875l2.4375 0q0.875 0 1.640625 -0.109375q0.765625 -0.125 1.328125 -0.4375q0.5625 -0.3125 0.875 -0.8125q0.328125 -0.515625 0.328125 -1.28125q0 -0.71875 -0.34375 -1.203125q-0.328125 -0.5 -0.921875 -0.796875q-0.578125 -0.296875 -1.375 -0.4375q-0.78125 -0.15625 -1.671875 -0.15625q-0.890625 0 -1.390625 0.03125q-0.5 0.015625 -0.90625 0.0625l0 5.140625zm17.588196 -3.125q0.28125 0 0.65625 0.046875q0.375 0.03125 0.734375 0.09375q0.359375 0.0625 0.65625 0.125q0.296875 0.046875 0.453125 0.09375l-0.390625 1.953125q-0.265625 -0.09375 -0.875 -0.21875q-0.609375 -0.140625 -1.578125 -0.140625q-0.625 0 -1.234375 0.140625q-0.609375 0.125 -0.796875 0.171875l0 10.484375l-2.234375 0l0 -11.953125q0.796875 -0.28125 1.96875 -0.53125q1.171875 -0.265625 2.640625 -0.265625zm15.670227 6.515625q0 1.484375 -0.4375 2.6875q-0.421875 1.1875 -1.203125 2.0625q-0.78125 0.859375 -1.859375 1.328125q-1.078125 0.46875 -2.359375 0.46875q-1.265625 0 -2.359375 -0.46875q-1.078125 -0.46875 -1.859375 -1.328125q-0.765625 -0.875 -1.203125 -2.0625q-0.4375 -1.203125 -0.4375 -2.6875q0 -1.46875 0.4375 -2.671875q0.4375 -1.21875 1.203125 -2.078125q0.78125 -0.875 1.859375 -1.34375q1.09375 -0.46875 2.359375 -0.46875q1.28125 0 2.359375 0.46875q1.078125 0.46875 1.859375 1.34375q0.78125 0.859375 1.203125 2.078125q0.4375 1.203125 0.4375 2.671875zm-2.328125 0q0 -2.125 -0.953125 -3.359375q-0.9375 -1.234375 -2.578125 -1.234375q-1.625 0 -2.578125 1.234375q-0.953125 1.234375 -0.953125 3.359375q0 2.109375 0.953125 3.34375q0.953125 1.234375 2.578125 1.234375q1.640625 0 2.578125 -1.234375q0.953125 -1.234375 0.953125 -3.34375zm15.675598 6.234375q-0.671875 -1.734375 -1.4375 -3.953125q-0.75 -2.21875 -1.375 -4.609375q-0.625 2.390625 -1.375 4.609375q-0.734375 2.21875 -1.40625 3.953125l-1.953125 0q-1.09375 -2.46875 -2.15625 -5.640625q-1.046875 -3.171875 -1.984375 -6.84375l2.390625 0q0.25 1.125 0.578125 2.453125q0.34375 1.3125 0.703125 2.640625q0.375 1.3125 0.78125 2.546875q0.40625 1.21875 0.765625 2.125q0.421875 -1.125 0.8125 -2.375q0.390625 -1.265625 0.75 -2.546875q0.359375 -1.28125 0.6875 -2.515625q0.328125 -1.25 0.5625 -2.328125l1.84375 0q0.21875 1.078125 0.53125 2.328125q0.3125 1.234375 0.671875 2.515625q0.359375 1.28125 0.75 2.546875q0.40625 1.25 0.8125 2.375q0.359375 -0.90625 0.75 -2.125q0.40625 -1.234375 0.78125 -2.546875q0.390625 -1.328125 0.71875 -2.640625q0.34375 -1.328125 0.578125 -2.453125l2.3125 0q-0.9375 3.671875 -2.0 6.84375q-1.046875 3.171875 -2.15625 5.640625l-1.9375 0zm11.351074 -1.609375q1.359375 0 2.015625 -0.359375q0.671875 -0.359375 0.671875 -1.15625q0 -0.8125 -0.65625 -1.28125q-0.640625 -0.484375 -2.125 -1.09375q-0.71875 -0.28125 -1.390625 -0.578125q-0.65625 -0.3125 -1.140625 -0.71875q-0.46875 -0.40625 -0.765625 -0.984375q-0.28125 -0.578125 -0.28125 -1.40625q0 -1.65625 1.21875 -2.625q1.21875 -0.984375 3.34375 -0.984375q0.515625 0 1.046875 0.0625q0.53125 0.0625 0.984375 0.15625q0.453125 0.078125 0.796875 0.171875q0.359375 0.09375 0.546875 0.171875l-0.40625 1.921875q-0.359375 -0.203125 -1.125 -0.40625q-0.765625 -0.203125 -1.84375 -0.203125q-0.9375 0 -1.640625 0.375q-0.6875 0.375 -0.6875 1.15625q0 0.421875 0.15625 0.734375q0.15625 0.296875 0.46875 0.5625q0.328125 0.25 0.796875 0.46875q0.484375 0.203125 1.15625 0.453125q0.890625 0.328125 1.578125 0.65625q0.703125 0.328125 1.1875 0.765625q0.5 0.421875 0.765625 1.03125q0.265625 0.609375 0.265625 1.5q0 1.734375 -1.28125 2.625q-1.28125 0.875 -3.65625 0.875q-1.65625 0 -2.59375 -0.28125q-0.9375 -0.265625 -1.28125 -0.40625l0.421875 -1.921875q0.375 0.140625 1.21875 0.4375q0.84375 0.28125 2.234375 0.28125zm7.0946045 -4.609375q0 -1.65625 0.484375 -2.890625q0.484375 -1.234375 1.265625 -2.046875q0.796875 -0.8125 1.828125 -1.21875q1.03125 -0.421875 2.109375 -0.421875q2.53125 0 3.875 1.578125q1.34375 1.578125 1.34375 4.78125q0 0.15625 0 0.390625q0 0.21875 -0.03125 0.40625l-8.546875 0q0.15625 1.9375 1.125 2.953125q0.984375 1.0 3.078125 1.0q1.171875 0 1.96875 -0.203125q0.8125 -0.203125 1.21875 -0.390625l0.3125 1.875q-0.40625 0.21875 -1.421875 0.453125q-1.015625 0.234375 -2.3125 0.234375q-1.640625 0 -2.828125 -0.484375q-1.1875 -0.5 -1.953125 -1.359375q-0.765625 -0.859375 -1.140625 -2.046875q-0.375 -1.1875 -0.375 -2.609375zm8.578125 -1.21875q0.015625 -1.515625 -0.765625 -2.484375q-0.78125 -0.96875 -2.140625 -0.96875q-0.765625 0 -1.359375 0.296875q-0.59375 0.296875 -1.0 0.78125q-0.40625 0.46875 -0.640625 1.09375q-0.21875 0.625 -0.296875 1.28125l6.203125 0zm10.15033 -5.3125q0.28125 0 0.65625 0.046875q0.375 0.03125 0.734375 0.09375q0.359375 0.0625 0.65625 0.125q0.296875 0.046875 0.453125 0.09375l-0.390625 1.953125q-0.265625 -0.09375 -0.875 -0.21875q-0.609375 -0.140625 -1.578125 -0.140625q-0.625 0 -1.234375 0.140625q-0.609375 0.125 -0.796875 0.171875l0 10.484375l-2.234375 0l0 -11.953125q0.796875 -0.28125 1.96875 -0.53125q1.171875 -0.265625 2.640625 -0.265625z" fill-rule="nonzero"></path><path fill="#f1c232" d="m424.94226 221.64305l213.63782 0l0 55.527542l-213.63782 0z" fill-rule="nonzero"></path><path fill="#000000" d="m472.60928 255.57089l5.234375 -13.59375l1.9375 0l5.5625 13.59375l-2.046875 0l-1.59375 -4.125l-5.6875 0l-1.484375 4.125l-1.921875 0zm3.921875 -5.578125l4.609375 0l-1.40625 -3.78125q-0.65625 -1.703125 -0.96875 -2.8125q-0.265625 1.3125 -0.734375 2.59375l-1.5 4.0zm16.256073 5.578125l0 -1.453125q-1.140625 1.671875 -3.125 1.671875q-0.859375 0 -1.625 -0.328125q-0.75 -0.34375 -1.125 -0.84375q-0.359375 -0.5 -0.515625 -1.234375q-0.09375 -0.5 -0.09375 -1.5625l0 -6.109375l1.671875 0l0 5.46875q0 1.3125 0.09375 1.765625q0.15625 0.65625 0.671875 1.03125q0.515625 0.375 1.265625 0.375q0.75 0 1.40625 -0.375q0.65625 -0.390625 0.921875 -1.046875q0.28125 -0.671875 0.28125 -1.9375l0 -5.28125l1.671875 0l0 9.859375l-1.5 0zm7.578827 -1.5l0.234375 1.484375q-0.703125 0.140625 -1.265625 0.140625q-0.90625 0 -1.40625 -0.28125q-0.5 -0.296875 -0.703125 -0.75q-0.203125 -0.46875 -0.203125 -1.984375l0 -5.65625l-1.234375 0l0 -1.3125l1.234375 0l0 -2.4375l1.65625 -1.0l0 3.4375l1.6875 0l0 1.3125l-1.6875 0l0 5.75q0 0.71875 0.078125 0.921875q0.09375 0.203125 0.296875 0.328125q0.203125 0.125 0.578125 0.125q0.265625 0 0.734375 -0.078125zm1.5270691 1.5l0 -13.59375l1.671875 0l0 4.875q1.171875 -1.359375 2.953125 -1.359375q1.09375 0 1.890625 0.4375q0.8125 0.421875 1.15625 1.1875q0.359375 0.765625 0.359375 2.203125l0 6.25l-1.671875 0l0 -6.25q0 -1.25 -0.546875 -1.8125q-0.546875 -0.578125 -1.53125 -0.578125q-0.75 0 -1.40625 0.390625q-0.640625 0.375 -0.921875 1.046875q-0.28125 0.65625 -0.28125 1.8125l0 5.390625l-1.671875 0zm17.125732 -3.171875l1.71875 0.21875q-0.40625 1.5 -1.515625 2.34375q-1.09375 0.828125 -2.8125 0.828125q-2.15625 0 -3.421875 -1.328125q-1.2656555 -1.328125 -1.2656555 -3.734375q0 -2.484375 1.2656555 -3.859375q1.28125 -1.375 3.328125 -1.375q1.984375 0 3.234375 1.34375q1.25 1.34375 1.25 3.796875q0 0.140625 -0.015625 0.4375l-7.34375 0q0.09375 1.625 0.921875 2.484375q0.828125 0.859375 2.0625 0.859375q0.90625 0 1.546875 -0.46875q0.65625 -0.484375 1.046875 -1.546875zm-5.484375 -2.703125l5.5 0q-0.109375 -1.234375 -0.625 -1.859375q-0.796875 -0.96875 -2.078125 -0.96875q-1.140625 0 -1.9375 0.78125q-0.78125 0.765625 -0.859375 2.046875zm9.110046 5.875l0 -9.859375l1.5 0l0 1.40625q1.09375 -1.625 3.140625 -1.625q0.890625 0 1.640625 0.328125q0.75 0.3125 1.109375 0.84375q0.375 0.515625 0.53125 1.21875q0.09375 0.46875 0.09375 1.625l0 6.0625l-1.671875 0l0 -6.0q0 -1.015625 -0.203125 -1.515625q-0.1875 -0.515625 -0.6875 -0.8125q-0.5 -0.296875 -1.171875 -0.296875q-1.0625 0 -1.84375 0.671875q-0.765625 0.671875 -0.765625 2.578125l0 5.375l-1.671875 0zm14.031982 -1.5l0.234375 1.484375q-0.703125 0.140625 -1.265625 0.140625q-0.90625 0 -1.40625 -0.28125q-0.5 -0.296875 -0.703125 -0.75q-0.203125 -0.46875 -0.203125 -1.984375l0 -5.65625l-1.234375 0l0 -1.3125l1.234375 0l0 -2.4375l1.65625 -1.0l0 3.4375l1.6875 0l0 1.3125l-1.6875 0l0 5.75q0 0.71875 0.078125 0.921875q0.09375 0.203125 0.296875 0.328125q0.203125 0.125 0.578125 0.125q0.265625 0 0.734375 -0.078125zm1.5426636 -10.1875l0 -1.90625l1.671875 0l0 1.90625l-1.671875 0zm0 11.6875l0 -9.859375l1.671875 0l0 9.859375l-1.671875 0zm10.566711 -3.609375l1.640625 0.21875q-0.265625 1.6875 -1.375 2.65625q-1.109375 0.953125 -2.734375 0.953125q-2.015625 0 -3.25 -1.3125q-1.21875 -1.328125 -1.21875 -3.796875q0 -1.59375 0.515625 -2.78125q0.53125 -1.203125 1.609375 -1.796875q1.09375 -0.609375 2.359375 -0.609375q1.609375 0 2.625 0.8125q1.015625 0.8125 1.3125 2.3125l-1.625 0.25q-0.234375 -1.0 -0.828125 -1.5q-0.59375 -0.5 -1.421875 -0.5q-1.265625 0 -2.0625 0.90625q-0.78125 0.90625 -0.78125 2.859375q0 1.984375 0.765625 2.890625q0.765625 0.890625 1.984375 0.890625q0.984375 0 1.640625 -0.59375q0.65625 -0.609375 0.84375 -1.859375zm9.328125 2.390625q-0.9375 0.796875 -1.796875 1.125q-0.859375 0.3125 -1.84375 0.3125q-1.609375 0 -2.484375 -0.78125q-0.875 -0.796875 -0.875 -2.03125q0 -0.734375 0.328125 -1.328125q0.328125 -0.59375 0.859375 -0.953125q0.53125 -0.359375 1.203125 -0.546875q0.5 -0.140625 1.484375 -0.25q2.03125 -0.25 2.984375 -0.578125q0 -0.34375 0 -0.4375q0 -1.015625 -0.46875 -1.4375q-0.640625 -0.5625 -1.90625 -0.5625q-1.171875 0 -1.734375 0.40625q-0.5625 0.40625 -0.828125 1.46875l-1.640625 -0.234375q0.234375 -1.046875 0.734375 -1.6875q0.515625 -0.640625 1.46875 -0.984375q0.96875 -0.359375 2.25 -0.359375q1.265625 0 2.046875 0.296875q0.78125 0.296875 1.15625 0.75q0.375 0.453125 0.515625 1.140625q0.09375 0.421875 0.09375 1.53125l0 2.234375q0 2.328125 0.09375 2.953125q0.109375 0.609375 0.4375 1.171875l-1.75 0q-0.265625 -0.515625 -0.328125 -1.21875zm-0.140625 -3.71875q-0.90625 0.359375 -2.734375 0.625q-1.03125 0.140625 -1.453125 0.328125q-0.421875 0.1875 -0.65625 0.546875q-0.234375 0.359375 -0.234375 0.796875q0 0.671875 0.5 1.125q0.515625 0.4375 1.484375 0.4375q0.96875 0 1.71875 -0.421875q0.75 -0.4375 1.109375 -1.15625q0.265625 -0.578125 0.265625 -1.671875l0 -0.609375zm7.7351074 3.4375l0.234375 1.484375q-0.703125 0.140625 -1.265625 0.140625q-0.90625 0 -1.40625 -0.28125q-0.5 -0.296875 -0.703125 -0.75q-0.203125 -0.46875 -0.203125 -1.984375l0 -5.65625l-1.234375 0l0 -1.3125l1.234375 0l0 -2.4375l1.65625 -1.0l0 3.4375l1.6875 0l0 1.3125l-1.6875 0l0 5.75q0 0.71875 0.078125 0.921875q0.09375 0.203125 0.296875 0.328125q0.203125 0.125 0.578125 0.125q0.265625 0 0.734375 -0.078125zm1.5426636 -10.1875l0 -1.90625l1.671875 0l0 1.90625l-1.671875 0zm0 11.6875l0 -9.859375l1.671875 0l0 9.859375l-1.671875 0zm3.5042114 -4.921875q0 -2.734375 1.53125 -4.0625q1.265625 -1.09375 3.09375 -1.09375q2.03125 0 3.3125 1.34375q1.296875 1.328125 1.296875 3.671875q0 1.90625 -0.578125 3.0q-0.5625 1.078125 -1.65625 1.6875q-1.078125 0.59375 -2.375 0.59375q-2.0625 0 -3.34375 -1.328125q-1.28125 -1.328125 -1.28125 -3.8125zm1.71875 0q0 1.890625 0.828125 2.828125q0.828125 0.9375 2.078125 0.9375q1.25 0 2.0625 -0.9375q0.828125 -0.953125 0.828125 -2.890625q0 -1.828125 -0.828125 -2.765625q-0.828125 -0.9375 -2.0625 -0.9375q-1.25 0 -2.078125 0.9375q-0.828125 0.9375 -0.828125 2.828125zm9.281921 4.921875l0 -9.859375l1.5 0l0 1.40625q1.09375 -1.625 3.140625 -1.625q0.890625 0 1.640625 0.328125q0.75 0.3125 1.109375 0.84375q0.375 0.515625 0.53125 1.21875q0.09375 0.46875 0.09375 1.625l0 6.0625l-1.671875 0l0 -6.0q0 -1.015625 -0.203125 -1.515625q-0.1875 -0.515625 -0.6875 -0.8125q-0.5 -0.296875 -1.171875 -0.296875q-1.0625 0 -1.84375 0.671875q-0.765625 0.671875 -0.765625 2.578125l0 5.375l-1.671875 0z" fill-rule="nonzero"></path><path fill="#f1c232" d="m698.34644 221.64305l213.63782 0l0 55.527542l-213.63782 0z" fill-rule="nonzero"></path><path fill="#000000" d="m761.46136 255.57089l0 -13.59375l2.71875 0l3.21875 9.625q0.4375 1.34375 0.640625 2.015625q0.234375 -0.75 0.734375 -2.1875l3.25 -9.453125l2.421875 0l0 13.59375l-1.734375 0l0 -11.390625l-3.953125 11.390625l-1.625 0l-3.9375 -11.578125l0 11.578125l-1.734375 0zm22.134583 -3.171875l1.71875 0.21875q-0.40625 1.5 -1.515625 2.34375q-1.09375 0.828125 -2.8125 0.828125q-2.15625 0 -3.421875 -1.328125q-1.265625 -1.328125 -1.265625 -3.734375q0 -2.484375 1.265625 -3.859375q1.28125 -1.375 3.328125 -1.375q1.984375 0 3.234375 1.34375q1.25 1.34375 1.25 3.796875q0 0.140625 -0.015625 0.4375l-7.34375 0q0.09375 1.625 0.921875 2.484375q0.828125 0.859375 2.0625 0.859375q0.90625 0 1.546875 -0.46875q0.65625 -0.484375 1.046875 -1.546875zm-5.484375 -2.703125l5.5 0q-0.109375 -1.234375 -0.625 -1.859375q-0.796875 -0.96875 -2.078125 -0.96875q-1.140625 0 -1.9375 0.78125q-0.78125 0.765625 -0.859375 2.046875zm8.438171 2.9375l1.65625 -0.265625q0.140625 1.0 0.765625 1.53125q0.640625 0.515625 1.78125 0.515625q1.15625 0 1.703125 -0.46875q0.5625 -0.46875 0.5625 -1.09375q0 -0.5625 -0.484375 -0.890625q-0.34375 -0.21875 -1.703125 -0.5625q-1.84375 -0.46875 -2.5625 -0.796875q-0.703125 -0.34375 -1.078125 -0.9375q-0.359375 -0.609375 -0.359375 -1.328125q0 -0.65625 0.296875 -1.21875q0.3125 -0.5625 0.828125 -0.9375q0.390625 -0.28125 1.0625 -0.484375q0.671875 -0.203125 1.4375 -0.203125q1.171875 0 2.046875 0.34375q0.875 0.328125 1.28125 0.90625q0.421875 0.5625 0.578125 1.515625l-1.625 0.21875q-0.109375 -0.75 -0.65625 -1.171875q-0.53125 -0.4375 -1.5 -0.4375q-1.15625 0 -1.640625 0.390625q-0.484375 0.375 -0.484375 0.875q0 0.328125 0.203125 0.59375q0.203125 0.265625 0.640625 0.4375q0.25 0.09375 1.46875 0.4375q1.765625 0.46875 2.46875 0.765625q0.703125 0.296875 1.09375 0.875q0.40625 0.578125 0.40625 1.4375q0 0.828125 -0.484375 1.578125q-0.484375 0.734375 -1.40625 1.140625q-0.921875 0.390625 -2.078125 0.390625q-1.921875 0 -2.9375 -0.796875q-1.0 -0.796875 -1.28125 -2.359375zm9.328125 0l1.65625 -0.265625q0.140625 1.0 0.765625 1.53125q0.640625 0.515625 1.78125 0.515625q1.15625 0 1.703125 -0.46875q0.5625 -0.46875 0.5625 -1.09375q0 -0.5625 -0.484375 -0.890625q-0.34375 -0.21875 -1.703125 -0.5625q-1.84375 -0.46875 -2.5625 -0.796875q-0.703125 -0.34375 -1.078125 -0.9375q-0.359375 -0.609375 -0.359375 -1.328125q0 -0.65625 0.296875 -1.21875q0.3125 -0.5625 0.828125 -0.9375q0.390625 -0.28125 1.0625 -0.484375q0.671875 -0.203125 1.4375 -0.203125q1.171875 0 2.046875 0.34375q0.875 0.328125 1.28125 0.90625q0.421875 0.5625 0.578125 1.515625l-1.625 0.21875q-0.109375 -0.75 -0.65625 -1.171875q-0.53125 -0.4375 -1.5 -0.4375q-1.15625 0 -1.640625 0.390625q-0.484375 0.375 -0.484375 0.875q0 0.328125 0.203125 0.59375q0.203125 0.265625 0.640625 0.4375q0.25 0.09375 1.46875 0.4375q1.765625 0.46875 2.46875 0.765625q0.703125 0.296875 1.09375 0.875q0.40625 0.578125 0.40625 1.4375q0 0.828125 -0.484375 1.578125q-0.484375 0.734375 -1.40625 1.140625q-0.921875 0.390625 -2.078125 0.390625q-1.921875 0 -2.9375 -0.796875q-1.0 -0.796875 -1.28125 -2.359375zm16.4375 1.71875q-0.9375 0.796875 -1.796875 1.125q-0.859375 0.3125 -1.84375 0.3125q-1.609375 0 -2.484375 -0.78125q-0.875 -0.796875 -0.875 -2.03125q0 -0.734375 0.328125 -1.328125q0.328125 -0.59375 0.859375 -0.953125q0.53125 -0.359375 1.203125 -0.546875q0.5 -0.140625 1.484375 -0.25q2.03125 -0.25 2.984375 -0.578125q0 -0.34375 0 -0.4375q0 -1.015625 -0.46875 -1.4375q-0.640625 -0.5625 -1.90625 -0.5625q-1.171875 0 -1.734375 0.40625q-0.5625 0.40625 -0.828125 1.46875l-1.640625 -0.234375q0.234375 -1.046875 0.734375 -1.6875q0.515625 -0.640625 1.46875 -0.984375q0.96875 -0.359375 2.25 -0.359375q1.265625 0 2.046875 0.296875q0.78125 0.296875 1.15625 0.75q0.375 0.453125 0.515625 1.140625q0.09375 0.421875 0.09375 1.53125l0 2.234375q0 2.328125 0.09375 2.953125q0.109375 0.609375 0.4375 1.171875l-1.75 0q-0.265625 -0.515625 -0.328125 -1.21875zm-0.140625 -3.71875q-0.90625 0.359375 -2.734375 0.625q-1.03125 0.140625 -1.453125 0.328125q-0.421875 0.1875 -0.65625 0.546875q-0.234375 0.359375 -0.234375 0.796875q0 0.671875 0.5 1.125q0.515625 0.4375 1.484375 0.4375q0.96875 0 1.71875 -0.421875q0.75 -0.4375 1.109375 -1.15625q0.265625 -0.578125 0.265625 -1.671875l0 -0.609375zm3.7819824 5.75l1.609375 0.25q0.109375 0.75 0.578125 1.09375q0.609375 0.453125 1.6875 0.453125q1.171875 0 1.796875 -0.46875q0.625 -0.453125 0.859375 -1.28125q0.125 -0.515625 0.109375 -2.15625q-1.09375 1.296875 -2.71875 1.296875q-2.03125 0 -3.15625 -1.46875q-1.109375 -1.46875 -1.109375 -3.515625q0 -1.40625 0.515625 -2.59375q0.515625 -1.203125 1.484375 -1.84375q0.96875 -0.65625 2.265625 -0.65625q1.75 0 2.875 1.40625l0 -1.1875l1.546875 0l0 8.515625q0 2.3125 -0.46875 3.265625q-0.46875 0.96875 -1.484375 1.515625q-1.015625 0.5625 -2.5 0.5625q-1.765625 0 -2.859375 -0.796875q-1.078125 -0.796875 -1.03125 -2.390625zm1.375 -5.921875q0 1.953125 0.765625 2.84375q0.78125 0.890625 1.9375 0.890625q1.140625 0 1.921875 -0.890625q0.78125 -0.890625 0.78125 -2.78125q0 -1.8125 -0.8125 -2.71875q-0.796875 -0.921875 -1.921875 -0.921875q-1.109375 0 -1.890625 0.90625q-0.78125 0.890625 -0.78125 2.671875zm9.313232 -6.578125l0 -1.90625l1.671875 0l0 1.90625l-1.671875 0zm0 11.6875l0 -9.859375l1.671875 0l0 9.859375l-1.671875 0zm4.1292114 0l0 -9.859375l1.5 0l0 1.40625q1.09375 -1.625 3.140625 -1.625q0.890625 0 1.640625 0.328125q0.75 0.3125 1.109375 0.84375q0.375 0.515625 0.53125 1.21875q0.09375 0.46875 0.09375 1.625l0 6.0625l-1.671875 0l0 -6.0q0 -1.015625 -0.203125 -1.515625q-0.1875 -0.515625 -0.6875 -0.8125q-0.5 -0.296875 -1.171875 -0.296875q-1.0625 0 -1.84375 0.671875q-0.765625 0.671875 -0.765625 2.578125l0 5.375l-1.671875 0zm10.078796 0.8125l1.609375 0.25q0.109375 0.75 0.578125 1.09375q0.609375 0.453125 1.6875 0.453125q1.171875 0 1.796875 -0.46875q0.625 -0.453125 0.859375 -1.28125q0.125 -0.515625 0.109375 -2.15625q-1.09375 1.296875 -2.71875 1.296875q-2.03125 0 -3.15625 -1.46875q-1.109375 -1.46875 -1.109375 -3.515625q0 -1.40625 0.515625 -2.59375q0.515625 -1.203125 1.484375 -1.84375q0.96875 -0.65625 2.265625 -0.65625q1.75 0 2.875 1.40625l0 -1.1875l1.546875 0l0 8.515625q0 2.3125 -0.46875 3.265625q-0.46875 0.96875 -1.484375 1.515625q-1.015625 0.5625 -2.5 0.5625q-1.765625 0 -2.859375 -0.796875q-1.078125 -0.796875 -1.03125 -2.390625zm1.375 -5.921875q0 1.953125 0.765625 2.84375q0.78125 0.890625 1.9375 0.890625q1.140625 0 1.921875 -0.890625q0.78125 -0.890625 0.78125 -2.78125q0 -1.8125 -0.8125 -2.71875q-0.796875 -0.921875 -1.921875 -0.921875q-1.109375 0 -1.890625 0.90625q-0.78125 0.890625 -0.78125 2.671875z" fill-rule="nonzero"></path><path fill="#f1c232" d="m430.58792 560.4698l213.63779 0l0 55.527588l-213.63779 0z" fill-rule="nonzero"></path><path fill="#000000" d="m483.98026 594.39764l5.234375 -13.59375l1.9375 0l5.5625 13.59375l-2.046875 0l-1.59375 -4.125l-5.6875 0l-1.484375 4.125l-1.921875 0zm3.921875 -5.578125l4.609375 0l-1.40625 -3.78125q-0.65625 -1.703125 -0.96875 -2.8125q-0.265625 1.3125 -0.734375 2.59375l-1.5 4.0zm16.240448 1.96875l1.640625 0.21875q-0.265625 1.6875 -1.375 2.65625q-1.109375 0.953125 -2.734375 0.953125q-2.015625 0 -3.25 -1.3125q-1.21875 -1.328125 -1.21875 -3.796875q0 -1.59375 0.515625 -2.78125q0.53125 -1.203125 1.609375 -1.796875q1.09375 -0.609375 2.359375 -0.609375q1.609375 0 2.625 0.8125q1.015625 0.8125 1.3125 2.3125l-1.625 0.25q-0.234375 -1.0 -0.828125 -1.5q-0.59375 -0.5 -1.421875 -0.5q-1.265625 0 -2.0625 0.90625q-0.78125 0.90625 -0.78125 2.859375q0 1.984375 0.765625 2.890625q0.765625 0.890625 1.984375 0.890625q0.984375 0 1.640625 -0.59375q0.65625 -0.609375 0.84375 -1.859375zm6.546875 2.109375l0.234375 1.484375q-0.703125 0.140625 -1.265625 0.140625q-0.90625 0 -1.40625 -0.28125q-0.5 -0.296875 -0.703125 -0.75q-0.203125 -0.46875 -0.203125 -1.984375l0 -5.65625l-1.234375 0l0 -1.3125l1.234375 0l0 -2.4375l1.65625 -1.0l0 3.4375l1.6875 0l0 1.3125l-1.6875 0l0 5.75q0 0.71875 0.078125 0.921875q0.09375 0.203125 0.296875 0.328125q0.203125 0.125 0.578125 0.125q0.265625 0 0.734375 -0.078125zm1.5426636 -10.1875l0 -1.90625l1.671875 0l0 1.90625l-1.671875 0zm0 11.6875l0 -9.859375l1.671875 0l0 9.859375l-1.671875 0zm6.8635864 0l-3.75 -9.859375l1.765625 0l2.125 5.90625q0.34375 0.953125 0.625 1.984375q0.21875 -0.78125 0.625 -1.875l2.1875 -6.015625l1.71875 0l-3.734375 9.859375l-1.5625 0zm6.609375 -11.6875l0 -1.90625l1.671875 0l0 1.90625l-1.671875 0zm0 11.6875l0 -9.859375l1.671875 0l0 9.859375l-1.671875 0zm7.7854614 -1.5l0.234375 1.484375q-0.703125 0.140625 -1.265625 0.140625q-0.90625 0 -1.40625 -0.28125q-0.5 -0.296875 -0.703125 -0.75q-0.203125 -0.46875 -0.203125 -1.984375l0 -5.65625l-1.234375 0l0 -1.3125l1.234375 0l0 -2.4375l1.65625 -1.0l0 3.4375l1.6875 0l0 1.3125l-1.6875 0l0 5.75q0 0.71875 0.078125 0.921875q0.09375 0.203125 0.296875 0.328125q0.203125 0.125 0.578125 0.125q0.265625 0 0.734375 -0.078125zm1.4489136 5.296875l-0.171875 -1.5625q0.546875 0.140625 0.953125 0.140625q0.546875 0 0.875 -0.1875q0.34375 -0.1875 0.5625 -0.515625q0.15625 -0.25 0.5 -1.25q0.046875 -0.140625 0.15625 -0.40625l-3.734375 -9.875l1.796875 0l2.046875 5.71875q0.40625 1.078125 0.71875 2.28125q0.28125 -1.15625 0.6875 -2.25l2.09375 -5.75l1.671875 0l-3.75 10.03125q-0.59375 1.625 -0.9375 2.234375q-0.4375 0.828125 -1.015625 1.203125q-0.578125 0.390625 -1.375 0.390625q-0.484375 0 -1.078125 -0.203125zm14.902039 -3.796875l0 -13.59375l9.171875 0l0 1.59375l-7.375 0l0 4.21875l6.375 0l0 1.609375l-6.375 0l0 6.171875l-1.796875 0zm17.833496 -3.171875l1.71875 0.21875q-0.40625 1.5 -1.515625 2.34375q-1.09375 0.828125 -2.8125 0.828125q-2.15625 0 -3.421875 -1.328125q-1.265625 -1.328125 -1.265625 -3.734375q0 -2.484375 1.265625 -3.859375q1.28125 -1.375 3.328125 -1.375q1.984375 0 3.234375 1.34375q1.25 1.34375 1.25 3.796875q0 0.140625 -0.015625 0.4375l-7.34375 0q0.09375 1.625 0.921875 2.484375q0.828125 0.859375 2.0625 0.859375q0.90625 0 1.546875 -0.46875q0.65625 -0.484375 1.046875 -1.546875zm-5.484375 -2.703125l5.5 0q-0.109375 -1.234375 -0.625 -1.859375q-0.796875 -0.96875 -2.078125 -0.96875q-1.140625 0 -1.9375 0.78125q-0.78125 0.765625 -0.859375 2.046875zm15.860107 2.703125l1.71875 0.21875q-0.40625 1.5 -1.515625 2.34375q-1.09375 0.828125 -2.8125 0.828125q-2.15625 0 -3.421875 -1.328125q-1.265625 -1.328125 -1.265625 -3.734375q0 -2.484375 1.265625 -3.859375q1.28125 -1.375 3.328125 -1.375q1.984375 0 3.234375 1.34375q1.25 1.34375 1.25 3.796875q0 0.140625 -0.015625 0.4375l-7.34375 0q0.09375 1.625 0.921875 2.484375q0.828125 0.859375 2.0625 0.859375q0.90625 0 1.546875 -0.46875q0.65625 -0.484375 1.046875 -1.546875zm-5.484375 -2.703125l5.5 0q-0.109375 -1.234375 -0.625 -1.859375q-0.796875 -0.96875 -2.078125 -0.96875q-1.140625 0 -1.9375 0.78125q-0.78125 0.765625 -0.859375 2.046875zm15.500732 5.875l0 -1.25q-0.9375 1.46875 -2.75 1.46875q-1.171875 0 -2.171875 -0.640625q-0.984375 -0.65625 -1.53125 -1.8125q-0.53125 -1.171875 -0.53125 -2.6875q0 -1.46875 0.484375 -2.671875q0.5 -1.203125 1.46875 -1.84375q0.984375 -0.640625 2.203125 -0.640625q0.890625 0 1.578125 0.375q0.703125 0.375 1.140625 0.984375l0 -4.875l1.65625 0l0 13.59375l-1.546875 0zm-5.28125 -4.921875q0 1.890625 0.796875 2.828125q0.8125 0.9375 1.890625 0.9375q1.09375 0 1.859375 -0.890625q0.765625 -0.890625 0.765625 -2.734375q0 -2.015625 -0.78125 -2.953125q-0.78125 -0.953125 -1.921875 -0.953125q-1.109375 0 -1.859375 0.90625q-0.75 0.90625 -0.75 2.859375z" fill-rule="nonzero"></path><path fill="#f1c232" d="m677.6483 560.4698l213.63776 0l0 55.527588l-213.63776 0z" fill-rule="nonzero"></path><path fill="#000000" d="m741.46704 580.8039l1.796875 0l0 7.84375q0 2.0625 -0.46875 3.265625q-0.453125 1.203125 -1.671875 1.96875q-1.203125 0.75 -3.171875 0.75q-1.90625 0 -3.125 -0.65625q-1.21875 -0.65625 -1.734375 -1.90625q-0.515625 -1.25 -0.515625 -3.421875l0 -7.84375l1.796875 0l0 7.84375q0 1.765625 0.328125 2.609375q0.328125 0.84375 1.125 1.296875q0.8125 0.453125 1.96875 0.453125q1.984375 0 2.828125 -0.890625q0.84375 -0.90625 0.84375 -3.46875l0 -7.84375zm3.6604614 10.65625l1.65625 -0.265625q0.140625 1.0 0.765625 1.53125q0.640625 0.515625 1.78125 0.515625q1.15625 0 1.703125 -0.46875q0.5625 -0.46875 0.5625 -1.09375q0 -0.5625 -0.484375 -0.890625q-0.34375 -0.21875 -1.703125 -0.5625q-1.84375 -0.46875 -2.5625 -0.796875q-0.703125 -0.34375 -1.078125 -0.9375q-0.359375 -0.609375 -0.359375 -1.328125q0 -0.65625 0.296875 -1.21875q0.3125 -0.5625 0.828125 -0.9375q0.390625 -0.28125 1.0625 -0.484375q0.671875 -0.203125 1.4375 -0.203125q1.171875 0 2.046875 0.34375q0.875 0.328125 1.28125 0.90625q0.421875 0.5625 0.578125 1.515625l-1.625 0.21875q-0.109375 -0.75 -0.65625 -1.171875q-0.53125 -0.4375 -1.5 -0.4375q-1.15625 0 -1.640625 0.390625q-0.484375 0.375 -0.484375 0.875q0 0.328125 0.203125 0.59375q0.203125 0.265625 0.640625 0.4375q0.25 0.09375 1.46875 0.4375q1.765625 0.46875 2.46875 0.765625q0.703125 0.296875 1.09375 0.875q0.40625 0.578125 0.40625 1.4375q0 0.828125 -0.484375 1.578125q-0.484375 0.734375 -1.40625 1.140625q-0.921875 0.390625 -2.078125 0.390625q-1.921875 0 -2.9375 -0.796875q-1.0 -0.796875 -1.28125 -2.359375zm16.75 -0.234375l1.71875 0.21875q-0.40625 1.5 -1.515625 2.34375q-1.09375 0.828125 -2.8125 0.828125q-2.15625 0 -3.421875 -1.328125q-1.265625 -1.328125 -1.265625 -3.734375q0 -2.484375 1.265625 -3.859375q1.28125 -1.375 3.328125 -1.375q1.984375 0 3.234375 1.34375q1.25 1.34375 1.25 3.796875q0 0.140625 -0.015625 0.4375l-7.34375 0q0.09375 1.625 0.921875 2.484375q0.828125 0.859375 2.0625 0.859375q0.90625 0 1.546875 -0.46875q0.65625 -0.484375 1.046875 -1.546875zm-5.484375 -2.703125l5.5 0q-0.109375 -1.234375 -0.625 -1.859375q-0.796875 -0.96875 -2.078125 -0.96875q-1.140625 0 -1.9375 0.78125q-0.78125 0.765625 -0.859375 2.046875zm9.094482 5.875l0 -9.859375l1.5 0l0 1.5q0.578125 -1.046875 1.0625 -1.375q0.484375 -0.34375 1.078125 -0.34375q0.84375 0 1.71875 0.546875l-0.578125 1.546875q-0.609375 -0.359375 -1.234375 -0.359375q-0.546875 0 -0.984375 0.328125q-0.421875 0.328125 -0.609375 0.90625q-0.28125 0.890625 -0.28125 1.953125l0 5.15625l-1.671875 0zm11.630371 0l0 -13.59375l5.125 0q1.359375 0 2.078125 0.125q1.0 0.171875 1.671875 0.640625q0.671875 0.46875 1.078125 1.3125q0.421875 0.84375 0.421875 1.84375q0 1.734375 -1.109375 2.9375q-1.09375 1.203125 -3.984375 1.203125l-3.484375 0l0 5.53125l-1.796875 0zm1.796875 -7.140625l3.515625 0q1.75 0 2.46875 -0.640625q0.734375 -0.65625 0.734375 -1.828125q0 -0.859375 -0.4375 -1.46875q-0.421875 -0.609375 -1.125 -0.796875q-0.453125 -0.125 -1.671875 -0.125l-3.484375 0l0 4.859375zm10.4122925 7.140625l0 -9.859375l1.5 0l0 1.5q0.578125 -1.046875 1.0625 -1.375q0.484375 -0.34375 1.078125 -0.34375q0.84375 0 1.71875 0.546875l-0.578125 1.546875q-0.609375 -0.359375 -1.234375 -0.359375q-0.546875 0 -0.984375 0.328125q-0.421875 0.328125 -0.609375 0.90625q-0.28125 0.890625 -0.28125 1.953125l0 5.15625l-1.671875 0zm5.6033325 -4.921875q0 -2.734375 1.53125 -4.0625q1.265625 -1.09375 3.09375 -1.09375q2.03125 0 3.3125 1.34375q1.296875 1.328125 1.296875 3.671875q0 1.90625 -0.578125 3.0q-0.5625 1.078125 -1.65625 1.6875q-1.078125 0.59375 -2.375 0.59375q-2.0625 0 -3.34375 -1.328125q-1.28125 -1.328125 -1.28125 -3.8125zm1.71875 0q0 1.890625 0.828125 2.828125q0.828125 0.9375 2.078125 0.9375q1.25 0 2.0625 -0.9375q0.828125 -0.953125 0.828125 -2.890625q0 -1.828125 -0.828125 -2.765625q-0.828125 -0.9375 -2.0625 -0.9375q-1.25 0 -2.078125 0.9375q-0.828125 0.9375 -0.828125 2.828125zm9.688171 4.921875l0 -8.546875l-1.484375 0l0 -1.3125l1.484375 0l0 -1.046875q0 -0.984375 0.171875 -1.46875q0.234375 -0.65625 0.84375 -1.046875q0.609375 -0.40625 1.703125 -0.40625q0.703125 0 1.5625 0.15625l-0.25 1.46875q-0.515625 -0.09375 -0.984375 -0.09375q-0.765625 0 -1.078125 0.328125q-0.3125 0.3125 -0.3125 1.203125l0 0.90625l1.921875 0l0 1.3125l-1.921875 0l0 8.546875l-1.65625 0zm4.7927246 -11.6875l0 -1.90625l1.671875 0l0 1.90625l-1.671875 0zm0 11.6875l0 -9.859375l1.671875 0l0 9.859375l-1.671875 0zm4.0979004 0l0 -13.59375l1.671875 0l0 13.59375l-1.671875 0zm10.926086 -3.171875l1.71875 0.21875q-0.40625 1.5 -1.515625 2.34375q-1.09375 0.828125 -2.8125 0.828125q-2.15625 0 -3.421875 -1.328125q-1.265625 -1.328125 -1.265625 -3.734375q0 -2.484375 1.265625 -3.859375q1.28125 -1.375 3.328125 -1.375q1.984375 0 3.234375 1.34375q1.25 1.34375 1.25 3.796875q0 0.140625 -0.015625 0.4375l-7.34375 0q0.09375 1.625 0.921875 2.484375q0.828125 0.859375 2.0625 0.859375q0.90625 0 1.546875 -0.46875q0.65625 -0.484375 1.046875 -1.546875zm-5.484375 -2.703125l5.5 0q-0.109375 -1.234375 -0.625 -1.859375q-0.796875 -0.96875 -2.078125 -0.96875q-1.140625 0 -1.9375 0.78125q-0.78125 0.765625 -0.859375 2.046875zm8.438232 2.9375l1.65625 -0.265625q0.140625 1.0 0.765625 1.53125q0.640625 0.515625 1.78125 0.515625q1.15625 0 1.703125 -0.46875q0.5625 -0.46875 0.5625 -1.09375q0 -0.5625 -0.484375 -0.890625q-0.34375 -0.21875 -1.703125 -0.5625q-1.84375 -0.46875 -2.5625 -0.796875q-0.703125 -0.34375 -1.078125 -0.9375q-0.359375 -0.609375 -0.359375 -1.328125q0 -0.65625 0.296875 -1.21875q0.3125 -0.5625 0.828125 -0.9375q0.390625 -0.28125 1.0625 -0.484375q0.671875 -0.203125 1.4375 -0.203125q1.171875 0 2.046875 0.34375q0.875 0.328125 1.28125 0.90625q0.421875 0.5625 0.578125 1.515625l-1.625 0.21875q-0.109375 -0.75 -0.65625 -1.171875q-0.53125 -0.4375 -1.5 -0.4375q-1.15625 0 -1.640625 0.390625q-0.484375 0.375 -0.484375 0.875q0 0.328125 0.203125 0.59375q0.203125 0.265625 0.640625 0.4375q0.25 0.09375 1.46875 0.4375q1.765625 0.46875 2.46875 0.765625q0.703125 0.296875 1.09375 0.875q0.40625 0.578125 0.40625 1.4375q0 0.828125 -0.484375 1.578125q-0.484375 0.734375 -1.40625 1.140625q-0.921875 0.390625 -2.078125 0.390625q-1.921875 0 -2.9375 -0.796875q-1.0 -0.796875 -1.28125 -2.359375z" fill-rule="nonzero"></path><path fill="#f1c232" d="m560.4724 133.17586l213.63782 0l0 55.527557l-213.63782 0z" fill-rule="nonzero"></path><path fill="#000000" d="m625.7268 167.1037l0 -13.59375l5.125 0q1.359375 0 2.078125 0.125q1.0 0.171875 1.671875 0.640625q0.671875 0.46875 1.078125 1.3125q0.421875 0.84375 0.421875 1.84375q0 1.734375 -1.109375 2.9375q-1.09375 1.203125 -3.984375 1.203125l-3.484375 0l0 5.53125l-1.796875 0zm1.796875 -7.140625l3.515625 0q1.75 0 2.46875 -0.640625q0.734375 -0.65625 0.734375 -1.828125q0 -0.859375 -0.4375 -1.46875q-0.421875 -0.609375 -1.125 -0.796875q-0.453125 -0.125 -1.671875 -0.125l-3.484375 0l0 4.859375zm16.881104 7.140625l0 -1.453125q-1.140625 1.671875 -3.125 1.671875q-0.859375 0 -1.625 -0.328125q-0.75 -0.34375 -1.125 -0.84375q-0.359375 -0.5 -0.515625 -1.234375q-0.09375 -0.5 -0.09375 -1.5625l0 -6.109375l1.671875 0l0 5.46875q0 1.3125 0.09375 1.765625q0.15625 0.65625 0.671875 1.03125q0.515625 0.375 1.265625 0.375q0.75 0 1.40625 -0.375q0.65625 -0.390625 0.921875 -1.046875q0.28125 -0.671875 0.28125 -1.9375l0 -5.28125l1.671875 0l0 9.859375l-1.5 0zm5.4694824 0l-1.546875 0l0 -13.59375l1.65625 0l0 4.84375q1.0625 -1.328125 2.703125 -1.328125q0.90625 0 1.71875 0.375q0.8125 0.359375 1.328125 1.03125q0.53125 0.65625 0.828125 1.59375q0.296875 0.9375 0.296875 2.0q0 2.53125 -1.25 3.921875q-1.25 1.375 -3.0 1.375q-1.75 0 -2.734375 -1.453125l0 1.234375zm-0.015625 -5.0q0 1.765625 0.46875 2.5625q0.796875 1.28125 2.140625 1.28125q1.09375 0 1.890625 -0.9375q0.796875 -0.953125 0.796875 -2.84375q0 -1.921875 -0.765625 -2.84375q-0.765625 -0.921875 -1.84375 -0.921875q-1.09375 0 -1.890625 0.953125q-0.796875 0.953125 -0.796875 2.75zm8.813171 5.0l0 -13.59375l1.671875 0l0 13.59375l-1.671875 0zm4.1917114 -11.6875l0 -1.90625l1.671875 0l0 1.90625l-1.671875 0zm0 11.6875l0 -9.859375l1.671875 0l0 9.859375l-1.671875 0zm10.566711 -3.609375l1.640625 0.21875q-0.265625 1.6875 -1.375 2.65625q-1.109375 0.953125 -2.734375 0.953125q-2.015625 0 -3.25 -1.3125q-1.21875 -1.328125 -1.21875 -3.796875q0 -1.59375 0.515625 -2.78125q0.53125 -1.203125 1.609375 -1.796875q1.09375 -0.609375 2.359375 -0.609375q1.609375 0 2.625 0.8125q1.015625 0.8125 1.3125 2.3125l-1.625 0.25q-0.234375 -1.0 -0.828125 -1.5q-0.59375 -0.5 -1.421875 -0.5q-1.265625 0 -2.0625 0.90625q-0.78125 0.90625 -0.78125 2.859375q0 1.984375 0.765625 2.890625q0.765625 0.890625 1.984375 0.890625q0.984375 0 1.640625 -0.59375q0.65625 -0.609375 0.84375 -1.859375zm6.7926636 3.609375l5.234375 -13.59375l1.9375 0l5.5625 13.59375l-2.046875 0l-1.59375 -4.125l-5.6875 0l-1.484375 4.125l-1.921875 0zm3.921875 -5.578125l4.609375 0l-1.40625 -3.78125q-0.65625 -1.703125 -0.96875 -2.8125q-0.265625 1.3125 -0.734375 2.59375l-1.5 4.0zm10.0216675 5.578125l0 -13.59375l5.125 0q1.359375 0 2.078125 0.125q1.0 0.171875 1.671875 0.640625q0.671875 0.46875 1.078125 1.3125q0.421875 0.84375 0.421875 1.84375q0 1.734375 -1.109375 2.9375q-1.09375 1.203125 -3.984375 1.203125l-3.484375 0l0 5.53125l-1.796875 0zm1.796875 -7.140625l3.515625 0q1.75 0 2.46875 -0.640625q0.734375 -0.65625 0.734375 -1.828125q0 -0.859375 -0.4375 -1.46875q-0.421875 -0.609375 -1.125 -0.796875q-0.453125 -0.125 -1.671875 -0.125l-3.484375 0l0 4.859375zm10.9436035 7.140625l0 -13.59375l1.8125 0l0 13.59375l-1.8125 0z" fill-rule="nonzero"></path><path stroke="#000000" stroke-width="2.0" stroke-linejoin="round" stroke-linecap="butt" d="m666.45404 298.1106l0.7454834 -97.40753" fill-rule="evenodd"></path><path fill="#000000" stroke="#000000" stroke-width="2.0" stroke-linecap="butt" d="m663.1507 298.0853l3.2338867 9.101227l3.3728027 -9.050659z" fill-rule="evenodd"></path><path fill="#000000" stroke="#000000" stroke-width="2.0" stroke-linecap="butt" d="m670.50287 200.72835l-3.2338867 -9.101212l-3.3728638 9.050644z" fill-rule="evenodd"></path><path stroke="#000000" stroke-width="2.0" stroke-linejoin="round" stroke-linecap="butt" d="m588.4103 330.55185l-47.91571 -45.15161" fill-rule="evenodd"></path><path fill="#000000" stroke="#000000" stroke-width="2.0" stroke-linecap="butt" d="m586.1447 332.95605l8.871094 3.8202515l-4.340027 -8.628693z" fill-rule="evenodd"></path><path fill="#000000" stroke="#000000" stroke-width="2.0" stroke-linecap="butt" d="m542.76013 282.99603l-8.871094 -3.820282l4.340027 8.628723z" fill-rule="evenodd"></path><path stroke="#000000" stroke-width="2.0" stroke-linejoin="round" stroke-linecap="butt" d="m744.5651 330.8266l51.615784 -45.70111" fill-rule="evenodd"></path><path fill="#000000" stroke="#000000" stroke-width="2.0" stroke-linecap="butt" d="m742.37524 328.35327l-4.6054688 8.48999l8.9852295 -3.5433655z" fill-rule="evenodd"></path><path fill="#000000" stroke="#000000" stroke-width="2.0" stroke-linecap="butt" d="m798.37085 287.5988l4.6054688 -8.48996l-8.985291 3.5433655z" fill-rule="evenodd"></path><path stroke="#000000" stroke-width="2.0" stroke-linejoin="round" stroke-linecap="butt" d="m590.1478 486.96823l-45.745117 63.75186" fill-rule="evenodd"></path><path fill="#000000" stroke="#000000" stroke-width="2.0" stroke-linecap="butt" d="m592.8318 488.89413l2.6073608 -9.30011l-7.975342 5.448303z" fill-rule="evenodd"></path><path fill="#000000" stroke="#000000" stroke-width="2.0" stroke-linecap="butt" d="m541.71875 548.7942l-2.6073608 9.30011l7.975342 -5.448303z" fill-rule="evenodd"></path><path stroke="#000000" stroke-width="2.0" stroke-linejoin="round" stroke-linecap="butt" d="m741.65704 487.5663l36.733765 62.555695" fill-rule="evenodd"></path><path fill="#000000" stroke="#000000" stroke-width="2.0" stroke-linecap="butt" d="m744.50574 485.89355l-7.444519 -6.1538086l1.7472534 9.499329z" fill-rule="evenodd"></path><path fill="#000000" stroke="#000000" stroke-width="2.0" stroke-linecap="butt" d="m775.5422 551.79474l7.444519 6.1538086l-1.7472534 -9.499329z" fill-rule="evenodd"></path><path fill="#6aa84f" d="m109.64829 559.1083l0 0c0 -54.06302 43.826744 -97.88977 97.88976 -97.88977l0 0c25.961975 0 50.860626 10.3133545 69.218506 28.671265c18.35791 18.35788 28.671265 43.25653 28.671265 69.218506l0 0c0 54.06305 -43.82675 97.88977 -97.88977 97.88977l0 0c-54.06302 0 -97.88976 -43.82672 -97.88976 -97.88977z" fill-rule="nonzero"></path><path fill="#000000" d="m168.64107 567.83484q-0.5 0 -1.09375 -0.03125q-0.578125 -0.015625 -1.171875 -0.0625q-0.578125 -0.046875 -1.15625 -0.109375q-0.578125 -0.078125 -1.0625 -0.203125l0 -16.125q0.484375 -0.125 1.0625 -0.1875q0.578125 -0.078125 1.15625 -0.125q0.59375 -0.046875 1.171875 -0.0625q0.578125 -0.03125 1.078125 -0.03125q1.4375 0 2.6875 0.21875q1.265625 0.203125 2.1875 0.71875q0.9375 0.515625 1.453125 1.359375q0.53125 0.84375 0.53125 2.0625q0 1.375 -0.65625 2.25q-0.640625 0.875 -1.71875 1.3125q1.46875 0.421875 2.328125 1.359375q0.859375 0.9375 0.859375 2.640625q0 2.5 -1.84375 3.765625q-1.828125 1.25 -5.8125 1.25zm-2.171875 -7.890625l0 5.859375q0.25 0.015625 0.609375 0.046875q0.3125 0.015625 0.734375 0.03125q0.421875 0.015625 0.984375 0.015625q1.03125 0 1.953125 -0.125q0.921875 -0.140625 1.609375 -0.46875q0.703125 -0.34375 1.125 -0.9375q0.421875 -0.609375 0.421875 -1.515625q0 -0.8125 -0.3125 -1.375q-0.3125 -0.578125 -0.90625 -0.90625q-0.578125 -0.34375 -1.40625 -0.484375q-0.8125 -0.140625 -1.8125 -0.140625l-3.0 0zm0 -1.875l2.4375 0q0.875 0 1.640625 -0.109375q0.765625 -0.125 1.328125 -0.4375q0.5625 -0.3125 0.875 -0.8125q0.328125 -0.515625 0.328125 -1.28125q0 -0.71875 -0.34375 -1.203125q-0.328125 -0.5 -0.921875 -0.796875q-0.578125 -0.296875 -1.375 -0.4375q-0.78125 -0.15625 -1.671875 -0.15625q-0.890625 0 -1.390625 0.03125q-0.5 0.015625 -0.90625 0.0625l0 5.140625zm17.588211 -3.125q0.28125 0 0.65625 0.046875q0.375 0.03125 0.734375 0.09375q0.359375 0.0625 0.65625 0.125q0.296875 0.046875 0.453125 0.09375l-0.390625 1.953125q-0.265625 -0.09375 -0.875 -0.21875q-0.609375 -0.140625 -1.578125 -0.140625q-0.625 0 -1.234375 0.140625q-0.609375 0.125 -0.796875 0.171875l0 10.484375l-2.234375 0l0 -11.953125q0.796875 -0.28125 1.96875 -0.53125q1.171875 -0.265625 2.640625 -0.265625zm15.670227 6.515625q0 1.484375 -0.4375 2.6875q-0.421875 1.1875 -1.203125 2.0625q-0.78125 0.859375 -1.859375 1.328125q-1.078125 0.46875 -2.359375 0.46875q-1.265625 0 -2.359375 -0.46875q-1.078125 -0.46875 -1.859375 -1.328125q-0.765625 -0.875 -1.203125 -2.0625q-0.4375 -1.203125 -0.4375 -2.6875q0 -1.46875 0.4375 -2.671875q0.4375 -1.21875 1.203125 -2.078125q0.78125 -0.875 1.859375 -1.34375q1.09375 -0.46875 2.359375 -0.46875q1.28125 0 2.359375 0.46875q1.078125 0.46875 1.859375 1.34375q0.78125 0.859375 1.203125 2.078125q0.4375 1.203125 0.4375 2.671875zm-2.328125 0q0 -2.125 -0.953125 -3.359375q-0.9375 -1.234375 -2.578125 -1.234375q-1.625 0 -2.578125 1.234375q-0.953125 1.234375 -0.953125 3.359375q0 2.109375 0.953125 3.34375q0.953125 1.234375 2.578125 1.234375q1.640625 0 2.578125 -1.234375q0.953125 -1.234375 0.953125 -3.34375zm15.675583 6.234375q-0.671875 -1.734375 -1.4375 -3.953125q-0.75 -2.21875 -1.375 -4.609375q-0.625 2.390625 -1.375 4.609375q-0.734375 2.21875 -1.40625 3.953125l-1.953125 0q-1.09375 -2.46875 -2.15625 -5.640625q-1.046875 -3.171875 -1.984375 -6.84375l2.390625 0q0.25 1.125 0.578125 2.453125q0.34375 1.3125 0.703125 2.640625q0.375 1.3125 0.78125 2.546875q0.40625 1.21875 0.765625 2.125q0.421875 -1.125 0.8125 -2.375q0.390625 -1.265625 0.75 -2.546875q0.359375 -1.28125 0.6875 -2.515625q0.328125 -1.25 0.5625 -2.328125l1.84375 0q0.21875 1.078125 0.53125 2.328125q0.3125 1.234375 0.671875 2.515625q0.359375 1.28125 0.75 2.546875q0.40625 1.25 0.8125 2.375q0.359375 -0.90625 0.75 -2.125q0.40625 -1.234375 0.78125 -2.546875q0.390625 -1.328125 0.71875 -2.640625q0.34375 -1.328125 0.578125 -2.453125l2.3125 0q-0.9375 3.671875 -2.0 6.84375q-1.046875 3.171875 -2.15625 5.640625l-1.9375 0zm11.351074 -1.609375q1.359375 0 2.015625 -0.359375q0.671875 -0.359375 0.671875 -1.15625q0 -0.8125 -0.65625 -1.28125q-0.640625 -0.484375 -2.125 -1.09375q-0.71875 -0.28125 -1.390625 -0.578125q-0.65625 -0.3125 -1.140625 -0.71875q-0.46875 -0.40625 -0.765625 -0.984375q-0.28125 -0.578125 -0.28125 -1.40625q0 -1.65625 1.21875 -2.625q1.21875 -0.984375 3.34375 -0.984375q0.515625 0 1.046875 0.0625q0.53125 0.0625 0.984375 0.15625q0.453125 0.078125 0.796875 0.171875q0.359375 0.09375 0.546875 0.171875l-0.40625 1.921875q-0.359375 -0.203125 -1.125 -0.40625q-0.765625 -0.203125 -1.84375 -0.203125q-0.9375 0 -1.640625 0.375q-0.6875 0.375 -0.6875 1.15625q0 0.421875 0.15625 0.734375q0.15625 0.296875 0.46875 0.5625q0.328125 0.25 0.796875 0.46875q0.484375 0.203125 1.15625 0.453125q0.890625 0.328125 1.578125 0.65625q0.703125 0.328125 1.1875 0.765625q0.5 0.421875 0.765625 1.03125q0.265625 0.609375 0.265625 1.5q0 1.734375 -1.28125 2.625q-1.28125 0.875 -3.65625 0.875q-1.65625 0 -2.59375 -0.28125q-0.9375 -0.265625 -1.28125 -0.40625l0.421875 -1.921875q0.375 0.140625 1.21875 0.4375q0.84375 0.28125 2.234375 0.28125zm7.094589 -4.609375q0 -1.65625 0.484375 -2.890625q0.484375 -1.234375 1.265625 -2.046875q0.796875 -0.8125 1.828125 -1.21875q1.03125 -0.421875 2.109375 -0.421875q2.53125 0 3.875 1.578125q1.34375 1.578125 1.34375 4.78125q0 0.15625 0 0.390625q0 0.21875 -0.03125 0.40625l-8.546875 0q0.15625 1.9375 1.125 2.953125q0.984375 1.0 3.078125 1.0q1.171875 0 1.96875 -0.203125q0.8125 -0.203125 1.21875 -0.390625l0.3125 1.875q-0.40625 0.21875 -1.421875 0.453125q-1.015625 0.234375 -2.3125 0.234375q-1.640625 0 -2.828125 -0.484375q-1.1875 -0.5 -1.953125 -1.359375q-0.765625 -0.859375 -1.140625 -2.046875q-0.375 -1.1875 -0.375 -2.609375zm8.578125 -1.21875q0.015625 -1.515625 -0.765625 -2.484375q-0.78125 -0.96875 -2.140625 -0.96875q-0.765625 0 -1.359375 0.296875q-0.59375 0.296875 -1.0 0.78125q-0.40625 0.46875 -0.640625 1.09375q-0.21875 0.625 -0.296875 1.28125l6.203125 0zm10.15033 -5.3125q0.28125 0 0.65625 0.046875q0.375 0.03125 0.734375 0.09375q0.359375 0.0625 0.65625 0.125q0.296875 0.046875 0.453125 0.09375l-0.390625 1.953125q-0.265625 -0.09375 -0.875 -0.21875q-0.609375 -0.140625 -1.578125 -0.140625q-0.625 0 -1.234375 0.140625q-0.609375 0.125 -0.796875 0.171875l0 10.484375l-2.234375 0l0 -11.953125q0.796875 -0.28125 1.96875 -0.53125q1.171875 -0.265625 2.640625 -0.265625z" fill-rule="nonzero"></path><path stroke="#000000" stroke-width="2.0" stroke-linejoin="round" stroke-linecap="butt" d="m207.53806 449.2185l0 -39.58072" fill-rule="evenodd"></path><path fill="#000000" stroke="#000000" stroke-width="2.0" stroke-linecap="butt" d="m204.23459 449.2185l3.3034668 9.076202l3.3034668 -9.076202z" fill-rule="evenodd"></path><path fill="#000000" stroke="#000000" stroke-width="2.0" stroke-linecap="butt" d="m210.84152 409.6378l-3.3034668 -9.076172l-3.3034668 9.076172z" fill-rule="evenodd"></path><path fill="#000000" d="m146.58304 72.5674q0.578125 1.046875 1.328125 2.609375q0.75 1.546875 1.5625 3.359375q0.8125 1.796875 1.609375 3.6875q0.8125 1.890625 1.515625 3.5625q0.703125 -1.671875 1.5 -3.5625q0.796875 -1.890625 1.609375 -3.6875q0.828125 -1.8125 1.578125 -3.359375q0.75 -1.5625 1.328125 -2.609375l4.546875 0q0.3125 2.203125 0.578125 4.9375q0.28125 2.734375 0.484375 5.703125q0.203125 2.953125 0.375 5.9375q0.1875 2.96875 0.3125 5.59375l-4.859375 0q-0.09375 -3.234375 -0.265625 -7.03125q-0.15625 -3.8125 -0.46875 -7.6875q-0.578125 1.34375 -1.28125 2.984375q-0.703125 1.625 -1.390625 3.265625q-0.6875 1.625 -1.328125 3.109375q-0.640625 1.484375 -1.09375 2.546875l-3.484375 0q-0.453125 -1.0625 -1.09375 -2.546875q-0.640625 -1.484375 -1.328125 -3.109375q-0.6875 -1.640625 -1.390625 -3.265625q-0.703125 -1.640625 -1.28125 -2.984375q-0.3125 3.875 -0.484375 7.6875q-0.15625 3.796875 -0.25 7.03125l-4.859375 0q0.125 -2.625 0.296875 -5.59375q0.1875 -2.984375 0.390625 -5.9375q0.203125 -2.96875 0.46875 -5.703125q0.28125 -2.734375 0.609375 -4.9375l4.765625 0zm38.235306 13.71875q0 1.984375 -0.578125 3.640625q-0.578125 1.640625 -1.671875 2.8125q-1.078125 1.171875 -2.609375 1.8125q-1.515625 0.640625 -3.390625 0.640625q-1.859375 0 -3.390625 -0.640625q-1.515625 -0.640625 -2.609375 -1.8125q-1.078125 -1.171875 -1.6875 -2.8125q-0.609375 -1.65625 -0.609375 -3.640625q0 -1.984375 0.625 -3.609375q0.625 -1.640625 1.71875 -2.78125q1.109375 -1.15625 2.625 -1.796875q1.53125 -0.640625 3.328125 -0.640625q1.8125 0 3.328125 0.640625q1.53125 0.640625 2.609375 1.796875q1.09375 1.140625 1.703125 2.78125q0.609375 1.625 0.609375 3.609375zm-4.859375 0q0 -2.203125 -0.890625 -3.46875q-0.875 -1.265625 -2.5 -1.265625q-1.640625 0 -2.546875 1.265625q-0.890625 1.265625 -0.890625 3.46875q0 2.21875 0.890625 3.515625q0.90625 1.296875 2.546875 1.296875q1.625 0 2.5 -1.296875q0.890625 -1.296875 0.890625 -3.515625zm8.533417 -7.796875q1.21875 -0.359375 3.140625 -0.65625q1.921875 -0.3125 4.03125 -0.3125q2.140625 0 3.5625 0.5625q1.4375 0.5625 2.265625 1.59375q0.828125 1.015625 1.171875 2.421875q0.359375 1.40625 0.359375 3.140625l0 9.5l-4.765625 0l0 -8.921875q0 -2.3125 -0.609375 -3.265625q-0.609375 -0.96875 -2.265625 -0.96875q-0.515625 0 -1.09375 0.046875q-0.578125 0.046875 -1.015625 0.125l0 12.984375l-4.78125 0l0 -16.25zm34.598038 7.796875q0 1.984375 -0.578125 3.640625q-0.578125 1.640625 -1.671875 2.8125q-1.078125 1.171875 -2.609375 1.8125q-1.515625 0.640625 -3.390625 0.640625q-1.859375 0 -3.390625 -0.640625q-1.515625 -0.640625 -2.609375 -1.8125q-1.078125 -1.171875 -1.6875 -2.8125q-0.609375 -1.65625 -0.609375 -3.640625q0 -1.984375 0.625 -3.609375q0.625 -1.640625 1.71875 -2.78125q1.109375 -1.15625 2.625 -1.796875q1.53125 -0.640625 3.328125 -0.640625q1.8125 0 3.328125 0.640625q1.53125 0.640625 2.609375 1.796875q1.09375 1.140625 1.703125 2.78125q0.609375 1.625 0.609375 3.609375zm-4.859375 0q0 -2.203125 -0.890625 -3.46875q-0.875 -1.265625 -2.5 -1.265625q-1.640625 0 -2.546875 1.265625q-0.890625 1.265625 -0.890625 3.46875q0 2.21875 0.890625 3.515625q0.90625 1.296875 2.546875 1.296875q1.625 0 2.5 -1.296875q0.890625 -1.296875 0.890625 -3.515625zm15.252167 8.765625q-2.078125 -0.03125 -3.375 -0.4375q-1.296875 -0.421875 -2.046875 -1.171875q-0.75 -0.75 -1.03125 -1.8125q-0.265625 -1.078125 -0.265625 -2.421875l0 -18.53125l4.78125 -0.765625l0 18.328125q0 0.640625 0.09375 1.15625q0.09375 0.515625 0.359375 0.875q0.28125 0.34375 0.78125 0.5625q0.515625 0.21875 1.375 0.296875l-0.671875 3.921875zm8.17453 -0.3125l-4.78125 0l0 -16.828125l4.78125 0l0 16.828125zm0.4375 -21.703125q0 1.3125 -0.84375 2.078125q-0.84375 0.75 -2.0 0.75q-1.15625 0 -2.0 -0.75q-0.84375 -0.765625 -0.84375 -2.078125q0 -1.3125 0.84375 -2.0625q0.84375 -0.75 2.0 -0.75q1.15625 0 2.0 0.75q0.84375 0.75 0.84375 2.0625zm3.8730164 0.671875l4.765625 -0.765625l0 4.96875l5.734375 0l0 3.96875l-5.734375 0l0 5.921875q0 1.5 0.53125 2.40625q0.53125 0.890625 2.125 0.890625q0.765625 0 1.578125 -0.140625q0.828125 -0.15625 1.5 -0.40625l0.671875 3.703125q-0.859375 0.359375 -1.921875 0.609375q-1.0625 0.265625 -2.59375 0.265625q-1.953125 0 -3.234375 -0.53125q-1.28125 -0.53125 -2.046875 -1.46875q-0.765625 -0.953125 -1.078125 -2.296875q-0.296875 -1.34375 -0.296875 -2.96875l0 -14.15625zm14.364258 21.03125l0 -24.0625l4.78125 -0.765625l0 8.0625q0.46875 -0.15625 1.21875 -0.296875q0.75 -0.15625 1.46875 -0.15625q2.046875 0 3.40625 0.5625q1.359375 0.5625 2.171875 1.59375q0.8125 1.015625 1.140625 2.421875q0.34375 1.40625 0.34375 3.140625l0 9.5l-4.765625 0l0 -8.921875q0 -2.3125 -0.59375 -3.265625q-0.59375 -0.96875 -2.1875 -0.96875q-0.640625 0 -1.203125 0.125q-0.5625 0.109375 -1.0 0.234375l0 12.796875l-4.78125 0z" fill-rule="nonzero"></path><path fill="#000000" d="m646.64886 90.92677q1.046875 0 1.734375 -0.171875q0.703125 -0.171875 1.109375 -0.46875q0.421875 -0.3125 0.578125 -0.71875q0.15625 -0.421875 0.15625 -0.9375q0 -1.09375 -1.03125 -1.8125q-1.015625 -0.71875 -3.515625 -1.546875q-1.078125 -0.390625 -2.171875 -0.875q-1.078125 -0.5 -1.953125 -1.25q-0.859375 -0.765625 -1.40625 -1.828125q-0.546875 -1.078125 -0.546875 -2.609375q0 -1.53125 0.578125 -2.765625q0.578125 -1.234375 1.625 -2.09375q1.0625 -0.875 2.5625 -1.328125q1.515625 -0.46875 3.40625 -0.46875q2.234375 0 3.859375 0.484375q1.640625 0.46875 2.6875 1.046875l-1.4375 3.9375q-0.921875 -0.484375 -2.0625 -0.84375q-1.140625 -0.375 -2.734375 -0.375q-1.796875 0 -2.578125 0.5q-0.78125 0.5 -0.78125 1.515625q0 0.609375 0.28125 1.03125q0.296875 0.421875 0.8125 0.765625q0.53125 0.328125 1.21875 0.59375q0.703125 0.265625 1.53125 0.5625q1.71875 0.640625 3.0 1.265625q1.28125 0.625 2.125 1.453125q0.859375 0.828125 1.265625 1.953125q0.421875 1.109375 0.421875 2.71875q0 3.109375 -2.1875 4.828125q-2.171875 1.703125 -6.546875 1.703125q-1.46875 0 -2.65625 -0.1875q-1.1875 -0.171875 -2.109375 -0.421875q-0.90625 -0.265625 -1.5625 -0.546875q-0.65625 -0.28125 -1.09375 -0.546875l1.40625 -3.96875q0.984375 0.546875 2.4375 0.984375q1.46875 0.421875 3.578125 0.421875zm16.764648 -7.296875q0 1.640625 0.390625 2.953125q0.40625 1.3125 1.15625 2.265625q0.765625 0.9375 1.84375 1.453125q1.09375 0.5 2.5 0.5q1.375 0 2.46875 -0.5q1.109375 -0.515625 1.859375 -1.453125q0.765625 -0.953125 1.15625 -2.265625q0.40625 -1.3125 0.40625 -2.953125q0 -1.625 -0.40625 -2.953125q-0.390625 -1.328125 -1.15625 -2.265625q-0.75 -0.953125 -1.859375 -1.453125q-1.09375 -0.515625 -2.46875 -0.515625q-1.40625 0 -2.5 0.53125q-1.078125 0.515625 -1.84375 1.46875q-0.75 0.9375 -1.15625 2.265625q-0.390625 1.328125 -0.390625 2.921875zm16.9375 0q0 2.859375 -0.859375 5.015625q-0.84375 2.15625 -2.3125 3.609375q-1.46875 1.453125 -3.515625 2.203125q-2.03125 0.734375 -4.359375 0.734375q-2.265625 0 -4.28125 -0.734375q-2.015625 -0.75 -3.53125 -2.203125q-1.5 -1.453125 -2.375 -3.609375q-0.859375 -2.15625 -0.859375 -5.015625q0 -2.84375 0.890625 -5.0q0.90625 -2.15625 2.421875 -3.625q1.53125 -1.484375 3.53125 -2.21875q2.0 -0.734375 4.203125 -0.734375q2.265625 0 4.28125 0.734375q2.015625 0.734375 3.515625 2.21875q1.515625 1.46875 2.375 3.625q0.875 2.15625 0.875 5.0zm18.99878 11.109375q-0.34375 -1.15625 -0.78125 -2.359375q-0.4375 -1.21875 -0.84375 -2.4375l-8.640625 0q-0.421875 1.21875 -0.859375 2.4375q-0.421875 1.203125 -0.78125 2.359375l-5.1875 0q1.25 -3.578125 2.375 -6.609375q1.125 -3.046875 2.1875 -5.734375q1.078125 -2.703125 2.109375 -5.109375q1.046875 -2.421875 2.171875 -4.71875l4.765625 0q1.09375 2.296875 2.140625 4.71875q1.0625 2.40625 2.125 5.109375q1.078125 2.6875 2.1875 5.734375q1.125 3.03125 2.375 6.609375l-5.34375 0zm-5.984375 -17.15625q-0.15625 0.484375 -0.484375 1.3125q-0.3125 0.828125 -0.734375 1.921875q-0.40625 1.09375 -0.90625 2.40625q-0.5 1.3125 -1.015625 2.75l6.3125 0q-0.515625 -1.4375 -1.0 -2.75q-0.46875 -1.3125 -0.90625 -2.40625q-0.4375 -1.09375 -0.765625 -1.921875q-0.3125 -0.828125 -0.5 -1.3125z" fill-rule="nonzero"></path></g></svg>

